<svg id="Layer_1" data-name="Layer 1" xmlns="http://www.w3.org/2000/svg" viewBox="0 0 158 123"><defs><style>.cls-1,.cls-2,.cls-5{fill:#a9aeb7}.cls-1{opacity:.5}.cls-3{fill:#464646}.cls-4{fill:#fafbfd}.cls-5{opacity:.16}.cls-6{fill:#fff}.cls-7{fill:#01a5c7}.cls-8{fill:#12a6c7}</style></defs><title>illustraions__lti__space</title><rect class="cls-1" x="7.46" y="114" width="140" height="7" rx="3.5" ry="3.5"/><path class="cls-2" d="M27.07 33H128.3a4 4 0 0 1 2.83 1.18l8.54 8.57a1 1 0 0 1 .29.71V46H15v-2.49a1 1 0 0 1 .31-.72l9-8.68A4 4 0 0 1 27.07 33z"/><path class="cls-3" d="M128.3 36a1 1 0 0 1 .71.29l6.67 6.71H19.38l7-6.72a1 1 0 0 1 .69-.28H128.3m0-3H27.07a4 4 0 0 0-2.77 1.12l-9 8.68a1 1 0 0 0-.31.72V46H140v-2.55a1 1 0 0 0-.29-.71l-8.54-8.57A4 4 0 0 0 128.3 33z"/><path class="cls-4" d="M16 43h123a1 1 0 0 1 1 1v69a4 4 0 0 1-4 4H19a4 4 0 0 1-4-4V44a1 1 0 0 1 1-1z"/><path class="cls-3" d="M137 46v67a1 1 0 0 1-1 1H19a1 1 0 0 1-1-1V46h119m2-3H16a1 1 0 0 0-1 1v69a4 4 0 0 0 4 4h117a4 4 0 0 0 4-4V44a1 1 0 0 0-1-1zM21.96 38.5h113v1h-113z"/><path class="cls-5" d="M127 107H28a2 2 0 1 1 0-4h99a2 2 0 0 1 0 4z"/><rect class="cls-6" x="27.96" y="85" width="100" height="20" rx="1" ry="1"/><path class="cls-3" d="M126 87v16H30V87h96m1-2H29a1 1 0 0 0-1 1v18a1 1 0 0 0 1 1h98a1 1 0 0 0 1-1V86a1 1 0 0 0-1-1z"/><path class="cls-7" d="M51.33 99.12h-1.82v-7.06h-2.32v-1.51h6.47v1.51h-2.33zM55.28 90.55h2.67a5.14 5.14 0 0 1 2.65.52 1.81 1.81 0 0 1 .82 1.65A2.08 2.08 0 0 1 61 94a1.44 1.44 0 0 1-1 .59v.06a1.89 1.89 0 0 1 1.17.68 2.21 2.21 0 0 1 .36 1.32 2.18 2.18 0 0 1-.85 1.83 3.66 3.66 0 0 1-2.3.66h-3.1zm1.82 3.39h1.05a1.93 1.93 0 0 0 1.07-.23.85.85 0 0 0 .33-.76.76.76 0 0 0-.36-.71A2.32 2.32 0 0 0 58 92h-1zm0 1.44v2.23h1.18a1.76 1.76 0 0 0 1.11-.29 1.06 1.06 0 0 0 .36-.88q0-1.07-1.52-1.07zM63.64 99.12v-8.57h1.82v7.07h3.47v1.5zM79.19 96.74a2.21 2.21 0 0 1-.83 1.83 3.63 3.63 0 0 1-2.32.67 5.46 5.46 0 0 1-2.43-.52V97a10 10 0 0 0 1.47.54 4.34 4.34 0 0 0 1.1.16 1.56 1.56 0 0 0 .92-.23.78.78 0 0 0 .32-.68.75.75 0 0 0-.14-.45 1.57 1.57 0 0 0-.41-.38 10.62 10.62 0 0 0-1.11-.58 5.26 5.26 0 0 1-1.18-.71 2.66 2.66 0 0 1-.63-.79 2.26 2.26 0 0 1-.23-1.05 2.21 2.21 0 0 1 .77-1.79 3.2 3.2 0 0 1 2.13-.65 5 5 0 0 1 1.27.16 8.76 8.76 0 0 1 1.27.45l-.59 1.41a8.57 8.57 0 0 0-1.13-.39 3.65 3.65 0 0 0-.88-.11 1.17 1.17 0 0 0-.79.24.79.79 0 0 0-.28.63.78.78 0 0 0 .11.42 1.22 1.22 0 0 0 .35.35 11 11 0 0 0 1.15.6 4.58 4.58 0 0 1 1.65 1.15 2.25 2.25 0 0 1 .44 1.44zM84.5 99.23a2.17 2.17 0 0 1-1.81-.84h-.09q.09.82.09.95V102H80.9v-9.43h1.45l.25.85h.08a2.07 2.07 0 0 1 1.86-1 2.13 2.13 0 0 1 1.82.9 4.15 4.15 0 0 1 .64 2.51 4.92 4.92 0 0 1-.31 1.82 2.56 2.56 0 0 1-.88 1.18 2.24 2.24 0 0 1-1.31.4zm-.5-5.36a1.13 1.13 0 0 0-1 .41 2.34 2.34 0 0 0-.32 1.34v.19a2.76 2.76 0 0 0 .32 1.52 1.12 1.12 0 0 0 1 .46q1.2 0 1.2-2a2.83 2.83 0 0 0-.3-1.45 1 1 0 0 0-.9-.47zM93 99.12l-.35-.89a2.64 2.64 0 0 1-.93.79 3 3 0 0 1-1.25.22 2 2 0 0 1-1.49-.54 2.07 2.07 0 0 1-.54-1.54 1.73 1.73 0 0 1 .73-1.54 4.23 4.23 0 0 1 2.2-.55h1.14v-.29a.89.89 0 0 0-1-1 4.65 4.65 0 0 0-1.85.47L89 93a5.33 5.33 0 0 1 2.51-.59 3.12 3.12 0 0 1 2 .57 2.12 2.12 0 0 1 .7 1.75v4.37zm-.53-3h-.69a2.21 2.21 0 0 0-1.16.28.88.88 0 0 0-.38.79q0 .76.87.76a1.37 1.37 0 0 0 1-.36 1.26 1.26 0 0 0 .37-.95zM99 99.23q-3.06 0-3.06-3.36a3.58 3.58 0 0 1 .83-2.55 3.12 3.12 0 0 1 2.38-.88 4.55 4.55 0 0 1 2 .45l-.53 1.38q-.42-.17-.79-.28a2.53 2.53 0 0 0-.73-.11q-1.39 0-1.39 2t1.39 1.92a3.18 3.18 0 0 0 1-.14 3.45 3.45 0 0 0 .88-.43v1.53a2.88 2.88 0 0 1-.88.38 4.93 4.93 0 0 1-1.1.09zM105.78 99.23a3.38 3.38 0 0 1-2.47-.87 3.31 3.31 0 0 1-.89-2.47 3.64 3.64 0 0 1 .82-2.55 2.93 2.93 0 0 1 2.28-.9 2.89 2.89 0 0 1 2.16.79 3 3 0 0 1 .77 2.19v.87h-4.22a1.72 1.72 0 0 0 .45 1.19 1.59 1.59 0 0 0 1.18.43 4.91 4.91 0 0 0 1.12-.12 5.6 5.6 0 0 0 1.1-.39v1.38a4.2 4.2 0 0 1-1 .35 6.32 6.32 0 0 1-1.3.1zm-.25-5.52a1.13 1.13 0 0 0-.89.36 1.67 1.67 0 0 0-.37 1h2.51a1.49 1.49 0 0 0-.35-1 1.17 1.17 0 0 0-.9-.36z"/><path class="cls-3" d="M24 84h-6a1 1 0 1 1 0-2h6a1 1 0 0 1 0 2zM28 80H18a1 1 0 1 1 0-2h10a1 1 0 0 1 0 2zM137 61h-6a1 1 0 0 1 0-2h6a1 1 0 0 1 0 2zM137 65h-10a1 1 0 0 1 0-2h10a1 1 0 0 1 0 2z"/><path class="cls-5" d="M127.46 107h-99a2 2 0 1 1 0-4h99a2 2 0 0 1 0 4z"/><circle class="cls-8" cx="148.1" cy="99.53" r="2.5" transform="rotate(-26.14 148.106 99.527)"/><path class="cls-3" d="M148.1 98a1.5 1.5 0 1 1-.66.15 1.49 1.49 0 0 1 .66-.15m0-1a2.5 2.5 0 1 0 2.25 1.4 2.49 2.49 0 0 0-2.25-1.4z"/><circle class="cls-8" cx="60.46" cy="5" r="3" transform="rotate(-26.14 60.464 5.003)"/><path class="cls-3" d="M60.46 3a2 2 0 1 1-.88.21 2 2 0 0 1 .88-.21m0-1a3 3 0 1 0 2.7 1.68A3 3 0 0 0 60.46 2z"/><circle class="cls-8" cx="152.12" cy="50.51" r="3.5" transform="rotate(-26.14 152.111 50.498)"/><path class="cls-3" d="M152.12 48a2.5 2.5 0 1 1-1.1.26 2.49 2.49 0 0 1 1.1-.26m0-1a3.5 3.5 0 1 0 3.14 2 3.49 3.49 0 0 0-3.14-2z"/><circle class="cls-8" cx="128.09" cy="17.51" r="2.5" transform="rotate(-26.14 128.085 17.501)"/><path class="cls-3" d="M128.09 16a1.5 1.5 0 1 1-.66.15 1.49 1.49 0 0 1 .66-.15m0-1a2.5 2.5 0 1 0 2.25 1.4 2.49 2.49 0 0 0-2.25-1.4z"/><circle class="cls-8" cx="34.07" cy="22.51" r="3.5" transform="rotate(-26.14 34.066 22.503)"/><path class="cls-3" d="M34.06 20a2.5 2.5 0 1 1-1.1.26 2.49 2.49 0 0 1 1.1-.26m0-1a3.5 3.5 0 1 0 3.14 2 3.49 3.49 0 0 0-3.14-2z"/><circle class="cls-8" cx="95.54" cy="24.37" r="3.5" transform="rotate(-26.14 95.533 24.358)"/><path class="cls-3" d="M95.54 21.87a2.5 2.5 0 1 1-1.1.26 2.49 2.49 0 0 1 1.1-.26m0-1a3.5 3.5 0 1 0 3.14 2 3.49 3.49 0 0 0-3.14-2z"/><circle class="cls-8" cx="5.07" cy="89.52" r="2.5" transform="rotate(-26.14 5.071 89.518)"/><path class="cls-3" d="M5.06 88a1.5 1.5 0 1 1-.66.15 1.49 1.49 0 0 1 .66-.15m0-1a2.5 2.5 0 1 0 2.25 1.4A2.49 2.49 0 0 0 5.06 87z"/><circle class="cls-8" cx="5.06" cy="45.52" r="2.5" transform="rotate(-26.14 5.074 45.507)"/><path class="cls-3" d="M5.06 44a1.5 1.5 0 1 1-.66.15 1.49 1.49 0 0 1 .66-.15m0-1a2.5 2.5 0 1 0 2.25 1.4A2.49 2.49 0 0 0 5.06 43z"/></svg>