<svg id="Layer_1" data-name="Layer 1" xmlns="http://www.w3.org/2000/svg" viewBox="0 0 123 87.17"><defs><style>.cls-1,.cls-4{fill:#a9aeb7}.cls-1{opacity:.5}.cls-2{fill:#fff}.cls-3{fill:#464646}.cls-5{fill:#5cbb61}.cls-6{fill:#fafbfd}.cls-7{fill:#01a5c7}.cls-8{fill:#05a5c6}</style></defs><title>illustraions__lti__exercise</title><path class="cls-1" d="M45 72.24H6a4 4 0 0 1-4-4v-42a2 2 0 0 1 4 0v42h39a2 2 0 0 1 0 4z"/><rect class="cls-2" x="4" y="22.24" width="45" height="48" rx="2" ry="2"/><path class="cls-3" d="M47 24.24v44H6v-44h41m0-2H6a2 2 0 0 0-2 2v44a2 2 0 0 0 2 2h41a2 2 0 0 0 2-2v-44a2 2 0 0 0-2-2z"/><path class="cls-3" d="M29 32.24H10a1 1 0 1 1 0-2h19a1 1 0 0 1 0 2z"/><circle class="cls-2" cx="12" cy="39.24" r="3"/><path class="cls-4" d="M12 37.24a2 2 0 1 1-2 2 2 2 0 0 1 2-2m0-1a3 3 0 1 0 3 3 3 3 0 0 0-3-3zM33 40.24H18a1 1 0 0 1 0-2h15a1 1 0 0 1 0 2z"/><circle class="cls-2" cx="12" cy="47.24" r="3"/><path class="cls-5" d="M12 45.24a2 2 0 1 1-2 2 2 2 0 0 1 2-2m0-1a3 3 0 1 0 3 3 3 3 0 0 0-3-3zM33 48.24H18a1 1 0 0 1 0-2h15a1 1 0 0 1 0 2z"/><circle class="cls-2" cx="12" cy="55.24" r="3"/><path class="cls-4" d="M12 53.24a2 2 0 1 1-2 2 2 2 0 0 1 2-2m0-1a3 3 0 1 0 3 3 3 3 0 0 0-3-3zM33 56.24H18a1 1 0 0 1 0-2h15a1 1 0 0 1 0 2z"/><circle class="cls-6" cx="46" cy="25.24" r="10"/><circle class="cls-2" cx="46" cy="25.24" r="8"/><path class="cls-3" d="M46 19.24a6 6 0 1 1-6 6 6 6 0 0 1 6-6m0-2a8 8 0 1 0 8 8 8 8 0 0 0-8-8z"/><path class="cls-3" d="M49 26.74h-3a.5.5 0 0 1-.5-.5v-4a.5.5 0 1 1 1 0v3.5H49a.5.5 0 0 1 0 1z"/><path class="cls-1" d="M117 72.24H78a4 4 0 0 1-4-4v-42a2 2 0 1 1 4 0v42h39a2 2 0 0 1 0 4z"/><rect class="cls-2" x="76" y="22.24" width="45" height="48" rx="2" ry="2"/><path class="cls-3" d="M119 24.24v44H78v-44h41m0-2H78a2 2 0 0 0-2 2v44a2 2 0 0 0 2 2h41a2 2 0 0 0 2-2v-44a2 2 0 0 0-2-2z"/><path class="cls-3" d="M114 36.24H99a1 1 0 0 1 0-2h15a1 1 0 0 1 0 2z"/><path class="cls-1" d="M113.5 48.24h-29a1.5 1.5 0 0 1 0-3h29a1.5 1.5 0 0 1 0 3z"/><path class="cls-3" d="M88.5 29.24a5.5 5.5 0 1 1-5.5 5.5 5.51 5.51 0 0 1 5.5-5.5m0-1a6.5 6.5 0 1 0 6.5 6.5 6.5 6.5 0 0 0-6.5-6.5z"/><circle class="cls-3" cx="86" cy="34.24" r="1"/><circle class="cls-3" cx="91" cy="34.24" r="1"/><path class="cls-3" d="M88.5 38.24a4.87 4.87 0 0 1-3.35-1.15.5.5 0 0 1 .7-.71 4.53 4.53 0 0 0 5.3 0 .5.5 0 0 1 .7.71 4.87 4.87 0 0 1-3.35 1.15z"/><path class="cls-7" d="M103.5 48.24h-19a1.5 1.5 0 0 1 0-3h19a1.5 1.5 0 0 1 0 3z"/><circle class="cls-2" cx="103.5" cy="46.74" r="3.5"/><path class="cls-4" d="M103.5 44.24a2.5 2.5 0 1 1-2.5 2.5 2.5 2.5 0 0 1 2.5-2.5m0-1a3.5 3.5 0 1 0 3.5 3.5 3.5 3.5 0 0 0-3.5-3.5z"/><rect class="cls-2" x="83" y="54.24" width="32" height="10" rx="1" ry="1"/><path class="cls-4" d="M114 55.24v8H84v-8h30m0-1H84a1 1 0 0 0-1 1v8a1 1 0 0 0 1 1h30a1 1 0 0 0 1-1v-8a1 1 0 0 0-1-1z"/><circle class="cls-8" cx="101.68" cy="5.74" r="3.5" transform="rotate(-26.14 101.671 5.74)"/><path class="cls-3" d="M101.68 3.24a2.5 2.5 0 1 1-1.1.26 2.49 2.49 0 0 1 1.1-.26m0-1a3.5 3.5 0 1 0 3.14 2 3.49 3.49 0 0 0-3.14-2z"/><circle class="cls-8" cx="57.67" cy="79.76" r="2.5" transform="rotate(-26.14 57.68 79.76)"/><path class="cls-3" d="M57.67 78.26a1.5 1.5 0 1 1-.66.15 1.49 1.49 0 0 1 .66-.15m0-1a2.5 2.5 0 1 0 2.25 1.4 2.49 2.49 0 0 0-2.25-1.4z"/><circle class="cls-8" cx="14.65" cy="8.74" r="3.5" transform="rotate(-26.14 14.655 8.736)"/><path class="cls-3" d="M14.65 6.24a2.5 2.5 0 1 1-1.1.26 2.49 2.49 0 0 1 1.1-.26m0-1a3.5 3.5 0 1 0 3.14 2 3.49 3.49 0 0 0-3.14-2z"/><circle class="cls-8" cx="67.64" cy="36.76" r="2.5" transform="rotate(-26.14 67.64 36.767)"/><path class="cls-3" d="M67.64 35.26a1.5 1.5 0 1 1-.66.15 1.49 1.49 0 0 1 .66-.15m0-1a2.5 2.5 0 1 0 2.25 1.4 2.49 2.49 0 0 0-2.25-1.4z"/><circle class="cls-8" cx="100.66" cy="80.76" r="3.5" transform="rotate(-26.14 100.668 80.751)"/><path class="cls-3" d="M100.66 78.26a2.5 2.5 0 1 1-1.1.26 2.49 2.49 0 0 1 1.1-.26m0-1a3.5 3.5 0 1 0 3.14 2 3.49 3.49 0 0 0-3.14-2z"/></svg>