<svg id="Layer_1" data-name="Layer 1" xmlns="http://www.w3.org/2000/svg" viewBox="0 0 155 121"><defs><style>.cls-1{fill:#edeff2}.cls-2{fill:#d3d6d9}.cls-3{fill:#a9aeb8}.cls-4{fill:#fafbfd}.cls-5{fill:#a9aeb7;opacity:.16}.cls-6{fill:#fff}.cls-7{font-size:12px;font-family:NotoSans-Bold,Noto Sans;font-weight:700;letter-spacing:.02em}.cls-7,.cls-8{fill:#bbd9e2}</style></defs><title>illustrations__empty__spaces</title><rect class="cls-1" x="6.5" y="113" width="140" height="7" rx="3.5" ry="3.5"/><path class="cls-2" d="M26.11 32h101.23a4 4 0 0 1 2.83 1.18l8.54 8.57a1 1 0 0 1 .29.71V45H14v-2.49a1 1 0 0 1 .31-.72l9-8.68a4 4 0 0 1 2.8-1.11z"/><path class="cls-3" d="M127.34 35a1 1 0 0 1 .71.29l6.67 6.71H18.42l7-6.72a1 1 0 0 1 .69-.28h101.23m0-3H26.11a4 4 0 0 0-2.77 1.12l-9 8.68a1 1 0 0 0-.31.72V45H139v-2.55a1 1 0 0 0-.29-.71l-8.54-8.57a4 4 0 0 0-2.83-1.17z"/><path class="cls-4" d="M15 42h123a1 1 0 0 1 1 1v69a4 4 0 0 1-4 4H18a4 4 0 0 1-4-4V43a1 1 0 0 1 1-1z"/><path class="cls-3" d="M136 45v67a1 1 0 0 1-1 1H18a1 1 0 0 1-1-1V45h119m2-3H15a1 1 0 0 0-1 1v69a4 4 0 0 0 4 4h117a4 4 0 0 0 4-4V43a1 1 0 0 0-1-1zM21 37.5h113v1H21z"/><path class="cls-5" d="M126 106H27a2 2 0 0 1 0-4h99a2 2 0 0 1 0 4z"/><rect class="cls-6" x="27" y="84" width="100" height="20" rx="1" ry="1"/><path class="cls-3" d="M125 86v16H29V86h96m1-2H28a1 1 0 0 0-1 1v18a1 1 0 0 0 1 1h98a1 1 0 0 0 1-1V85a1 1 0 0 0-1-1z"/><text class="cls-7" transform="translate(45.99 98.12)">TBL Space</text><path class="cls-3" d="M23 83h-6a1 1 0 0 1 0-2h6a1 1 0 0 1 0 2zM27 79H17a1 1 0 0 1 0-2h10a1 1 0 0 1 0 2zM136 60h-6a1 1 0 0 1 0-2h6a1 1 0 0 1 0 2zM136 64h-10a1 1 0 0 1 0-2h10a1 1 0 0 1 0 2z"/><circle class="cls-8" cx="146.64" cy="98.53" r="2.5" transform="rotate(-26.14 146.636 98.527)"/><path class="cls-3" d="M146.64 97a1.5 1.5 0 1 1-.66.15 1.49 1.49 0 0 1 .66-.15m0-1a2.5 2.5 0 1 0 2.25 1.4 2.49 2.49 0 0 0-2.25-1.4z"/><circle class="cls-8" cx="59" cy="4" r="3" transform="rotate(-26.14 58.993 4.004)"/><path class="cls-3" d="M59 2a2 2 0 1 1-.88.21A2 2 0 0 1 59 2m0-1a3 3 0 1 0 2.7 1.68A3 3 0 0 0 59 1z"/><circle class="cls-8" cx="150.66" cy="49.51" r="3.5" transform="rotate(-26.14 150.662 49.504)"/><path class="cls-3" d="M150.66 47a2.5 2.5 0 1 1-1.1.26 2.49 2.49 0 0 1 1.1-.26m0-1a3.5 3.5 0 1 0 3.14 2 3.49 3.49 0 0 0-3.14-2z"/><circle class="cls-8" cx="126.63" cy="16.51" r="2.5" transform="rotate(-26.14 126.636 16.507)"/><path class="cls-3" d="M126.63 15a1.5 1.5 0 1 1-.66.15 1.49 1.49 0 0 1 .66-.15m0-1a2.5 2.5 0 1 0 2.25 1.4 2.49 2.49 0 0 0-2.25-1.4z"/><circle class="cls-8" cx="32.61" cy="21.51" r="3.5" transform="rotate(-26.14 32.617 21.509)"/><path class="cls-3" d="M32.61 19a2.5 2.5 0 1 1-1.1.26 2.49 2.49 0 0 1 1.1-.26m0-1a3.5 3.5 0 1 0 3.14 2 3.49 3.49 0 0 0-3.14-2z"/><circle class="cls-8" cx="94.08" cy="23.37" r="3.5" transform="rotate(-26.14 94.085 23.363)"/><path class="cls-3" d="M94.08 20.87a2.5 2.5 0 1 1-1.1.26 2.49 2.49 0 0 1 1.1-.26m0-1a3.5 3.5 0 1 0 3.14 2 3.49 3.49 0 0 0-3.14-2z"/><circle class="cls-8" cx="3.61" cy="88.52" r="2.5" transform="rotate(-26.14 3.6 88.519)"/><path class="cls-3" d="M3.61 87a1.5 1.5 0 1 1-.66.15 1.49 1.49 0 0 1 .66-.15m0-1a2.5 2.5 0 1 0 2.25 1.4A2.49 2.49 0 0 0 3.6 86z"/><circle class="cls-8" cx="3.6" cy="44.52" r="2.5" transform="rotate(-26.14 3.604 44.508)"/><path class="cls-3" d="M3.6 43a1.5 1.5 0 1 1-.66.15A1.49 1.49 0 0 1 3.6 43m0-1a2.5 2.5 0 1 0 2.25 1.4A2.49 2.49 0 0 0 3.6 42z"/></svg>