<svg id="Layer_1" data-name="Layer 1" xmlns="http://www.w3.org/2000/svg" viewBox="0 0 158 123"><defs><style>.cls-1{fill:#d3d6d9}.cls-2{fill:#12a6c7}.cls-3{fill:#464646}.cls-4{fill:#fbfbff}</style></defs><title>illustraions__lti__pending</title><path class="cls-1" d="M136 109.5H17a5.51 5.51 0 0 1-5.5-5.5V20a3.5 3.5 0 0 1 7 0v82.5H136a3.5 3.5 0 0 1 0 7z"/><rect class="cls-2" x="15" y="13" width="127" height="93" rx="2" ry="2"/><path class="cls-3" d="M139 16v87H18V16h121m1-3H17a2 2 0 0 0-2 2v89a2 2 0 0 0 2 2h123a2 2 0 0 0 2-2V15a2 2 0 0 0-2-2z"/><path class="cls-4" d="M129.5 27.5h-18a1 1 0 0 1 0-2h18a1 1 0 0 1 0 2zM128.5 33h-17a.5.5 0 0 1 0-1h17a.5.5 0 0 1 0 1zM128.5 37h-17a.5.5 0 0 1 0-1h17a.5.5 0 0 1 0 1zM122.5 41h-11a.5.5 0 0 1 0-1h11a.5.5 0 0 1 0 1zM99 27v50H45V27h54m0-2H45a2 2 0 0 0-2 2v50a2 2 0 0 0 2 2h54a2 2 0 0 0 2-2V27a2 2 0 0 0-2-2zM36 27h-4a1 1 0 0 1 0-2h4a1 1 0 0 1 0 2zM36 79h-4a1 1 0 0 1 0-2h4a1 1 0 0 1 0 2z"/><path class="cls-4" d="M34 29a1 1 0 0 1-1-1v-2a1 1 0 0 1 2 0v2a1 1 0 0 1-1 1zM34 69.87a1 1 0 0 1-1-1v-4.09a1 1 0 1 1 2 0v4.09a1 1 0 0 1-1 1zm0-10.22a1 1 0 0 1-1-1v-4.08a1 1 0 0 1 2 0v4.09a1 1 0 0 1-1 .99zm0-10.22a1 1 0 0 1-1-1v-4.08a1 1 0 0 1 2 0v4.09a1 1 0 0 1-1 1zm0-10.22a1 1 0 0 1-1-1v-4.08a1 1 0 0 1 2 0v4.09a1 1 0 0 1-1 1zM34 78a1 1 0 0 1-1-1v-2a1 1 0 0 1 2 0v2a1 1 0 0 1-1 1zM44 91a1 1 0 0 1-1-1v-4a1 1 0 0 1 2 0v4a1 1 0 0 1-1 1zM100 91a1 1 0 0 1-1-1v-4a1 1 0 0 1 2 0v4a1 1 0 0 1-1 1z"/><path class="cls-4" d="M47 89h-2a1 1 0 0 1 0-2h2a1 1 0 0 1 0 2zM90.48 89h-4.35a1 1 0 0 1 0-2h4.35a1 1 0 0 1 0 2zm-10.87 0h-4.35a1 1 0 1 1 0-2h4.35a1 1 0 0 1 0 2zm-10.87 0h-4.35a1 1 0 0 1 0-2h4.35a1 1 0 0 1 0 2zm-10.87 0h-4.35a1 1 0 0 1 0-2h4.35a1 1 0 1 1 0 2zM99 89h-2a1 1 0 0 1 0-2h2a1 1 0 0 1 0 2zM100 37H44a1 1 0 0 1 0-2h56a1 1 0 0 1 0 2zM27 55a1 1 0 0 1-1-1v-4a1 1 0 0 1 2 0v4a1 1 0 0 1-1 1zM74 95h-4a1 1 0 0 1 0-2h4a1 1 0 0 1 0 2zM84.5 69a7.5 7.5 0 1 1 7.5-7.5 7.51 7.51 0 0 1-7.5 7.5zm0-13a5.5 5.5 0 1 0 5.5 5.5 5.51 5.51 0 0 0-5.5-5.5z"/><path class="cls-4" d="M90 57a1 1 0 0 1-.83-1.55q.3-.45.62-.87a1 1 0 0 1 1.59 1.21q-.28.36-.54.76A1 1 0 0 1 90 57zM105.65 53.65a1 1 0 0 1-.54-.16 11.76 11.76 0 0 0-1.52-.84 1 1 0 0 1 .83-1.82 13.79 13.79 0 0 1 1.78 1 1 1 0 0 1-.55 1.84zm-12.39-.1a1 1 0 0 1-.58-1.81 11.61 11.61 0 0 1 1.77-1 1 1 0 0 1 .86 1.81 9.44 9.44 0 0 0-1.47.86 1 1 0 0 1-.58.14zm7.13-1.83h-.12a9.67 9.67 0 0 0-1.71 0 1 1 0 0 1-.12-2 11.77 11.77 0 0 1 2.06.06 1 1 0 0 1-.11 2zM109 57a1 1 0 0 1-.86-.49 7.46 7.46 0 0 0-.5-.73 1 1 0 0 1 1.58-1.22 9.49 9.49 0 0 1 .63.92A1 1 0 0 1 109 57zM128.5 59h-17a.5.5 0 0 1 0-1h17a.5.5 0 0 1 0 1zM124.5 63h-13a.5.5 0 0 1 0-1h13a.5.5 0 0 1 0 1z"/></svg>