<svg id="Layer_1" data-name="Layer 1" xmlns="http://www.w3.org/2000/svg" viewBox="0 0 194 191"><defs><style>.cls-1{fill:#bbd9e2}.cls-2{fill:#a9aeb8}.cls-3{fill:#fff}.cls-4{fill:#e9ebed}.cls-5{fill:#464646}.cls-6{fill:#dcedda}.cls-7{fill:#eed9df}</style></defs><title>illustrations__empty__teams</title><circle class="cls-1" cx="114.52" cy="160.6" r="2.5" transform="rotate(-26.14 114.521 160.596)"/><path class="cls-2" d="M114.52 159.1a1.5 1.5 0 1 1-.66.15 1.49 1.49 0 0 1 .66-.15m0-1a2.5 2.5 0 1 0 2.25 1.4 2.49 2.49 0 0 0-2.25-1.4z"/><circle class="cls-1" cx="8.5" cy="112.59" r="3.5" transform="rotate(-26.14 8.5 112.581)"/><path class="cls-2" d="M8.49 110.09a2.5 2.5 0 1 1-1.1.26 2.49 2.49 0 0 1 1.1-.26m0-1a3.5 3.5 0 1 0 3.14 2 3.49 3.49 0 0 0-3.14-2z"/><circle class="cls-1" cx="122.5" cy="38.6" r="2.5" transform="rotate(-26.14 122.504 38.609)"/><path class="cls-2" d="M122.5 37.1a1.5 1.5 0 1 1-.66.15 1.49 1.49 0 0 1 .66-.15m0-1a2.5 2.5 0 1 0 2.25 1.4 2.49 2.49 0 0 0-2.25-1.4z"/><circle class="cls-1" cx="66.51" cy="11.6" r="3.5" transform="rotate(-26.14 66.512 11.605)"/><path class="cls-2" d="M66.51 9.1a2.5 2.5 0 1 1-1.1.26 2.49 2.49 0 0 1 1.1-.26m0-1a3.5 3.5 0 1 0 3.14 2 3.49 3.49 0 0 0-3.14-2z"/><circle class="cls-1" cx="78.5" cy="107.59" r="3.5" transform="rotate(-26.14 78.504 107.587)"/><path class="cls-2" d="M78.5 105.09a2.5 2.5 0 1 1-1.1.26 2.49 2.49 0 0 1 1.1-.26m0-1a3.5 3.5 0 1 0 3.14 2 3.49 3.49 0 0 0-3.14-2z"/><circle class="cls-1" cx="34.51" cy="146.57" r="2.5" transform="rotate(-26.14 34.523 146.564)"/><path class="cls-2" d="M34.51 145.07a1.5 1.5 0 1 1-.66.15 1.49 1.49 0 0 1 .66-.15m0-1a2.5 2.5 0 1 0 2.25 1.4 2.49 2.49 0 0 0-2.25-1.4z"/><path class="cls-1" d="M101.35 37.67A21 21 0 0 0 63 25.78a27.81 27.81 0 0 0-8-3.14V22a21 21 0 1 0-32.08 17.81A27.81 27.81 0 0 0 21.16 47 21 21 0 1 0 41 76.84a27.91 27.91 0 0 0 6.2 1.1 21 21 0 1 0 33.9-19.31 21 21 0 0 0 20.25-20.96z"/><circle class="cls-3" cx="22.02" cy="67.55" r="10.98" transform="matrix(.69 -.72 .72 .69 -41.87 36.48)"/><path class="cls-2" d="M22 58.41a9.15 9.15 0 1 1-6.58 2.79A9.1 9.1 0 0 1 22 58.41m0-1.83a11 11 0 1 0 7.62 3.08A10.94 10.94 0 0 0 22 56.58z"/><circle class="cls-3" cx="18.58" cy="68.79" r=".91" transform="rotate(-19.87 18.581 68.776)"/><path class="cls-2" d="M18.58 67.88a.91.91 0 1 0 .86.6.91.91 0 0 0-.86-.6z"/><circle class="cls-3" cx="25.47" cy="66.31" r=".91" transform="rotate(-19.87 25.458 66.303)"/><path class="cls-2" d="M25.47 65.39a.91.91 0 1 0 .86.6.91.91 0 0 0-.86-.6zM21.1 72.77a5.08 5.08 0 0 1-2-.35.46.46 0 0 1 .38-.83 5.67 5.67 0 0 0 3.94-.16A5.69 5.69 0 0 0 26.57 69a.46.46 0 0 1 .82.4 6.45 6.45 0 0 1-3.65 2.86 7.74 7.74 0 0 1-2.64.51z"/><circle class="cls-3" cx="33" cy="22" r="12" transform="rotate(-26.14 33.001 22.007)"/><path class="cls-2" d="M33 12a10 10 0 1 1-4.4 1 9.94 9.94 0 0 1 4.4-1m0-2a12 12 0 1 0 10.78 6.71A12 12 0 0 0 33 10z"/><circle class="cls-3" cx="27" cy="25" r="1"/><path class="cls-2" d="M27 24a1 1 0 1 0 1 1 1 1 0 0 0-1-1z"/><circle class="cls-3" cx="39" cy="25" r="1"/><path class="cls-2" d="M39 24a1 1 0 1 0 1 1 1 1 0 0 0-1-1zM33 30a4.85 4.85 0 0 1-3.35-1.16.5.5 0 0 1 .71-.71A3.88 3.88 0 0 0 33 29a3.86 3.86 0 0 0 2.64-.87.5.5 0 0 1 .71.71A4.83 4.83 0 0 1 33 30z"/><circle class="cls-3" cx="80" cy="38" r="13" transform="rotate(-33.03 80.006 37.995)"/><path class="cls-2" d="M80 27a11 11 0 1 1-6 1.78A11 11 0 0 1 80 27m0-2a13 13 0 1 0 10.9 5.92A12.94 12.94 0 0 0 80 25z"/><circle class="cls-3" cx="76.38" cy="35.16" r="1.08" transform="rotate(-6.89 76.405 35.192)"/><path class="cls-2" d="M76.38 34.08h-.13a1.08 1.08 0 0 0 .13 2.16h.13a1.08 1.08 0 0 0-.13-2.16z"/><circle class="cls-3" cx="82.84" cy="34.38" r="1.08" transform="rotate(-6.89 82.87 34.414)"/><path class="cls-2" d="M82.84 33.3h-.13a1.08 1.08 0 0 0 .13 2.16H83a1.08 1.08 0 0 0-.13-2.16zM79.47 40.2a5 5 0 0 1-2.94-.85.5.5 0 0 1 .62-.79 4.88 4.88 0 0 0 5.74-.69.5.5 0 0 1 .79.62 5.19 5.19 0 0 1-3.42 1.67 6.54 6.54 0 0 1-.79.04z"/><circle class="cls-3" cx="67.99" cy="75.05" r="11" transform="matrix(1 -.09 .09 1 -6.49 6.44)"/><path class="cls-2" d="M68 66a9 9 0 0 1 .8 18h-.82a9 9 0 0 1-.8-18h.83m0-2h-1a11 11 0 0 0 1 22h1a11 11 0 0 0-1-22z"/><circle class="cls-3" cx="61.87" cy="75.65" r=".92" transform="rotate(-69.04 61.87 75.643)"/><path class="cls-2" d="M61.87 74.73a.92.92 0 1 0 .33.06.92.92 0 0 0-.33-.06z"/><circle class="cls-3" cx="72.15" cy="79.58" r=".92" transform="rotate(-69.04 72.14 79.58)"/><path class="cls-2" d="M72.15 78.66a.92.92 0 1 0 .33.06.92.92 0 0 0-.33-.06zM67.19 82.32a5.16 5.16 0 0 1-1.85-.32 4.49 4.49 0 0 1-2.51-2.11.5.5 0 0 1 .91-.41 4.05 4.05 0 0 0 4.47 1.71.5.5 0 0 1 .41.91 3.7 3.7 0 0 1-1.43.22z"/><circle class="cls-3" cx="49.03" cy="50.74" r="15" transform="rotate(-70.2 49.034 50.744)"/><path class="cls-2" d="M49 37.74a13 13 0 1 1-12.23 8.6A13 13 0 0 1 49 37.74m0-2a15 15 0 1 0 5.08.89 15 15 0 0 0-5.08-.89z"/><path class="cls-4" d="M40.6 53l13.48 4.85a1 1 0 0 1 .22 1.77c-1.87 1.22-5.26 2.79-9 1.45s-5.35-4.72-6-6.85A1 1 0 0 1 40.6 53z"/><path class="cls-2" d="M40.26 54l13.49 4.85a10.32 10.32 0 0 1-5.5 1.8 7.68 7.68 0 0 1-2.61-.46A9.1 9.1 0 0 1 40.26 54m0-1a1 1 0 0 0-1 1.29c.66 2.13 2.27 5.5 6 6.85a8.65 8.65 0 0 0 2.95.52 11.32 11.32 0 0 0 6-2 1 1 0 0 0-.22-1.77L40.6 53a1 1 0 0 0-.34-.06z"/><circle class="cls-5" cx="41.47" cy="49.62" r="1.5" transform="rotate(-70.2 41.465 49.612)"/><path class="cls-2" d="M41.47 48.11a1.5 1.5 0 1 0 .51.09 1.5 1.5 0 0 0-.51-.09z"/><circle class="cls-5" cx="55.58" cy="54.7" r="1.5" transform="rotate(-70.2 55.578 54.695)"/><path class="cls-2" d="M55.58 53.2a1.5 1.5 0 1 0 .51.09 1.5 1.5 0 0 0-.51-.09z"/><path class="cls-6" d="M174.55 86.74a18.38 18.38 0 0 0-13.62 6 23.85 23.85 0 0 0-8.57-3.38v-.21a22.81 22.81 0 1 0-42.72 11.11 22.81 22.81 0 1 0 23.47 38.15c-.07.67-.1 1.35-.1 2a20.5 20.5 0 1 0 35.1-14.39 24 24 0 0 0 1.72-3.1 18.44 18.44 0 1 0 4.74-36.27z"/><circle class="cls-3" cx="147.5" cy="113.5" r="13.5" transform="rotate(-27.7 147.514 113.514)"/><path class="cls-2" d="M145.21 100.19l.38 2.22a11.26 11.26 0 1 1-3.32 1.13 11.22 11.22 0 0 1 3.32-1.13l-.38-2.22m0 0a13.5 13.5 0 1 0 14.24 7 13.49 13.49 0 0 0-14.24-7z"/><circle class="cls-3" cx="141.75" cy="109.16" r="1.13" transform="rotate(-1.56 142.138 109.194)"/><path class="cls-2" d="M141.56 108a1.13 1.13 0 0 0 .22 2.23h.16a1.13 1.13 0 0 0-.22-2.23h-.16z"/><circle class="cls-3" cx="153" cy="108.85" r="1.13" transform="rotate(-1.56 153.16 108.977)"/><path class="cls-2" d="M152.81 107.74A1.13 1.13 0 0 0 153 110h.16a1.13 1.13 0 0 0-.22-2.23h-.16zM149.07 116.17a10.51 10.51 0 0 1-1.5.15c-4.75.13-6.7-2.77-6.78-2.9a.56.56 0 0 1 .94-.62c.07.1 1.71 2.5 5.81 2.39s5.58-2.59 5.64-2.7a.56.56 0 0 1 1 .56 7.26 7.26 0 0 1-5.11 3.12z"/><circle class="cls-3" cx="129" cy="90" r="12" transform="rotate(-14.63 129.037 90.008)"/><path class="cls-2" d="M129 80a10 10 0 1 1-2.53.33A10 10 0 0 1 129 80m0-2a12 12 0 1 0 11.6 9 12 12 0 0 0-11.6-9z"/><circle class="cls-3" cx="124.1" cy="89" r="1" transform="rotate(-78.49 124.11 89.005)"/><path class="cls-2" d="M124.1 88a1 1 0 0 0-.2 2h.2a1 1 0 0 0 .2-2h-.2z"/><circle class="cls-3" cx="133.9" cy="91" r="1" transform="rotate(-78.49 133.905 90.995)"/><path class="cls-2" d="M133.9 90a1 1 0 0 0-.2 2h.2a1 1 0 0 0 .2-2h-.2zM128 94.9c-3.06-.62-3.94-1.84-4-2a.5.5 0 0 1 .83-.56s.78 1 3.4 1.55 3.74-.09 3.75-.1a.5.5 0 0 1 .68.16.5.5 0 0 1-.15.68c-.16.12-1.51.89-4.51.27z"/><circle class="cls-3" cx="118.22" cy="120.87" r="11" transform="rotate(-28.9 118.209 120.863)"/><path class="cls-2" d="M114.61 112.62a9 9 0 0 1 8 16.12c-.24.13-.49.26-.74.37a9 9 0 0 1-8-16.12c.24-.13.49-.26.74-.37m-.81-1.83c-.3.13-.61.28-.9.45a11 11 0 0 0 9.73 19.71c.3-.13.61-.28.9-.45a11 11 0 0 0-9.73-19.71z"/><circle class="cls-3" cx="112.86" cy="123.88" r=".92" transform="rotate(-2.76 112.692 123.789)"/><path class="cls-2" d="M112.49 123a.92.92 0 1 0 .32-.08.92.92 0 0 0-.32.08z"/><circle class="cls-3" cx="123.85" cy="123.35" r=".92" transform="rotate(-2.76 123.712 123.223)"/><path class="cls-2" d="M123.48 122.51a.92.92 0 1 0 .32-.08.92.92 0 0 0-.32.08zM120.41 127.85a5.16 5.16 0 0 1-1.84.42 4.49 4.49 0 0 1-3.15-.92.5.5 0 0 1 .67-.74 4.05 4.05 0 0 0 4.78-.23.5.5 0 0 1 .74.67 3.7 3.7 0 0 1-1.2.8z"/><circle class="cls-3" cx="153.66" cy="141.37" r="9.63" transform="rotate(-11.32 153.65 141.369)"/><path class="cls-2" d="M149.34 134.22a8.35 8.35 0 1 1-3.87 8.78 8.32 8.32 0 0 1 3.87-8.78m-.66-1.1a9.63 9.63 0 1 0 3.09-1.2 9.63 9.63 0 0 0-3.09 1.2z"/><path class="cls-4" d="M149.78 145.42l9-1.81a.64.64 0 0 1 .71.9 6 6 0 0 1-10 2 .64.64 0 0 1 .29-1.09z"/><path class="cls-2" d="M149.9 146l9-1.81a6.63 6.63 0 0 1-2.4 2.81 4.93 4.93 0 0 1-1.59.61 5.84 5.84 0 0 1-5-1.61m-.34-.55a.64.64 0 0 0-.1 1 6.54 6.54 0 0 0 5.57 1.77 5.55 5.55 0 0 0 1.79-.69 7.27 7.27 0 0 0 2.67-3.08.64.64 0 0 0-.71-.9l-9 1.81a.65.65 0 0 0-.21.08z"/><circle class="cls-5" cx="149.13" cy="143.26" r=".96" transform="rotate(-11.32 149.132 143.265)"/><path class="cls-2" d="M148.63 142.43a1 1 0 1 0 .31-.12 1 1 0 0 0-.31.12z"/><circle class="cls-5" cx="158.56" cy="141.37" r=".96" transform="rotate(-11.32 158.544 141.344)"/><path class="cls-2" d="M158.07 140.54a1 1 0 1 0 .31-.12 1 1 0 0 0-.31.12z"/><circle class="cls-3" cx="174" cy="106" r="9" transform="rotate(-33.03 174.008 106.007)"/><path class="cls-2" d="M174 98.39a7.62 7.62 0 1 1-4.14 1.23 7.6 7.6 0 0 1 4.14-1.23m0-1.39a9 9 0 1 0 7.55 4.09A9 9 0 0 0 174 97z"/><circle class="cls-3" cx="171.5" cy="104.04" r=".75" transform="rotate(-6.89 171.542 104.022)"/><path class="cls-2" d="M171.5 103.29h-.09a.75.75 0 0 0 .09 1.49h.09a.75.75 0 0 0-.09-1.49z"/><circle class="cls-3" cx="175.96" cy="103.5" r=".75" transform="rotate(-6.89 175.989 103.54)"/><path class="cls-2" d="M176 102.75h-.09a.75.75 0 0 0 .09 1.49h.09a.75.75 0 0 0-.09-1.49zM173.63 107.53a3.43 3.43 0 0 1-2-.59.35.35 0 0 1 .43-.54 3.38 3.38 0 0 0 4-.48.35.35 0 0 1 .55.43 3.59 3.59 0 0 1-2.37 1.15 4.53 4.53 0 0 1-.61.03z"/><path class="cls-7" d="M77.84 139a28 28 0 0 0-16-22.41 19 19 0 1 0-34.16 8.54 28 28 0 0 0-2.36 3.7 17 17 0 1 0 .63 32.07 19 19 0 1 0 34 16.44 23 23 0 1 0 18-38.34z"/><circle class="cls-3" cx="50" cy="142" r="16" transform="rotate(-21.95 49.994 141.986)"/><path class="cls-2" d="M52.59 128.71a13.54 13.54 0 1 1-7.65.73 13.5 13.5 0 0 1 7.65-.73m.47-2.42A16 16 0 1 0 64.84 136a15.92 15.92 0 0 0-11.78-9.72z"/><circle class="cls-3" cx="46.3" cy="137.72" r="1.33" transform="rotate(-85.81 46.295 137.71)"/><path class="cls-2" d="M46.56 136.41h-.16A1.33 1.33 0 0 0 46 139h.16a1.33 1.33 0 0 0 .36-2.64z"/><circle class="cls-3" cx="54.28" cy="138.3" r="1.33" transform="rotate(-85.81 54.273 138.297)"/><path class="cls-2" d="M54.54 137h-.16a1.33 1.33 0 0 0-.36 2.64h.16a1.33 1.33 0 0 0 .36-2.64zM48.84 144.53a6.1 6.1 0 0 1-3.35-1.72.62.62 0 0 1 .93-.8 5.21 5.21 0 0 0 3.46 1.43 5.19 5.19 0 0 0 3.63-.9.62.62 0 0 1 .81.93 6.39 6.39 0 0 1-4.53 1.2 8.05 8.05 0 0 1-.95-.14z"/><circle class="cls-3" cx="19.02" cy="144.55" r="9.97" transform="rotate(-12.08 19.019 144.503)"/><path class="cls-2" d="M23.66 137.65a8.31 8.31 0 1 1-6.38-1.23 8.27 8.27 0 0 1 6.38 1.23m.93-1.38a10 10 0 1 0 4.19 6.19 9.95 9.95 0 0 0-4.19-6.19z"/><circle class="cls-3" cx="15.8" cy="143.74" r=".83" transform="rotate(-75.94 15.792 143.742)"/><path class="cls-2" d="M16.26 143.05a.83.83 0 1 0 .34.89.83.83 0 0 0-.34-.89z"/><circle class="cls-3" cx="22.25" cy="145.36" r=".83" transform="rotate(-75.94 22.244 145.355)"/><path class="cls-2" d="M22.71 144.67a.83.83 0 1 0 .34.89.83.83 0 0 0-.34-.89zM15.68 148a4.62 4.62 0 0 1-1.32-1.27.42.42 0 0 1 .71-.43 5.15 5.15 0 0 0 3.05 1.87 5.17 5.17 0 0 0 3.58-.17.42.42 0 0 1 .42.72 5.86 5.86 0 0 1-4.21.3 7 7 0 0 1-2.23-1.02z"/><circle class="cls-3" cx="43" cy="114" r="10" transform="rotate(-26.14 42.99 114.005)"/><path class="cls-2" d="M43 105.67a8.34 8.34 0 1 1-3.66.85 8.28 8.28 0 0 1 3.66-.85m0-1.67a10 10 0 1 0 9 5.6 10 10 0 0 0-9-5.6z"/><circle class="cls-3" cx="38" cy="116.5" r=".83"/><path class="cls-2" d="M38 115.67a.83.83 0 1 0 .83.83.83.83 0 0 0-.83-.83z"/><circle class="cls-3" cx="48" cy="116.5" r=".83"/><path class="cls-2" d="M48 115.67a.83.83 0 1 0 .83.83.83.83 0 0 0-.83-.83zM43 120.7a4 4 0 0 1-2.79-1 .42.42 0 0 1 .59-.59 3.72 3.72 0 0 0 4.4 0 .42.42 0 0 1 .59.59 4 4 0 0 1-2.79 1z"/><circle class="cls-3" cx="77.47" cy="161.52" r="12.48" transform="rotate(-5.18 77.429 161.447)"/><path class="cls-2" d="M77.49 151.31a10.21 10.21 0 0 1 .91 20.37h-.94a10.21 10.21 0 0 1-.91-20.37h.94m0-2.27c-.38 0-.76 0-1.14.05A12.48 12.48 0 0 0 77.46 174c.38 0 .76 0 1.14-.05A12.48 12.48 0 0 0 77.49 149z"/><circle class="cls-3" cx="70.53" cy="162.2" r="1.04" transform="rotate(-69.04 70.52 162.196)"/><path class="cls-2" d="M70.53 161.16a1 1 0 1 0 .37.07 1 1 0 0 0-.37-.07z"/><circle class="cls-3" cx="82.18" cy="166.67" r="1.04" transform="rotate(-69.04 82.17 166.665)"/><path class="cls-2" d="M82.18 165.63a1 1 0 1 0 .37.07 1 1 0 0 0-.37-.07zM76.56 169.78a5.86 5.86 0 0 1-2.1-.4 5.09 5.09 0 0 1-2.85-2.4.57.57 0 0 1 1-.46 4.6 4.6 0 0 0 5.07 1.94.57.57 0 0 1 .46 1 4.2 4.2 0 0 1-1.58.32z"/><circle class="cls-3" cx="42.52" cy="171.05" r="9.48" transform="rotate(-46.01 42.509 171.038)"/><path class="cls-2" d="M42.53 163.16a7.9 7.9 0 1 1-5.68 2.41 7.86 7.86 0 0 1 5.68-2.41m0-1.58a9.48 9.48 0 1 0 6.58 2.66 9.45 9.45 0 0 0-6.58-2.66z"/><circle class="cls-3" cx="39.55" cy="172.12" r=".79" transform="rotate(-19.87 39.526 172.096)"/><path class="cls-2" d="M39.55 171.33a.79.79 0 1 0 .74.52.79.79 0 0 0-.74-.52z"/><circle class="cls-3" cx="45.5" cy="169.98" r=".79" transform="rotate(-19.87 45.495 169.934)"/><path class="cls-2" d="M45.5 169.19a.79.79 0 1 0 .74.52.79.79 0 0 0-.74-.52zM41.72 175.56a4.39 4.39 0 0 1-1.72-.3.39.39 0 0 1 .33-.72 4.89 4.89 0 0 0 3.4-.14 4.91 4.91 0 0 0 2.71-2.07.39.39 0 0 1 .71.35 5.57 5.57 0 0 1-3.15 2.46 6.69 6.69 0 0 1-2.28.42z"/><circle class="cls-1" cx="186.52" cy="131.57" r="2.5" transform="rotate(-26.14 186.516 131.574)"/><path class="cls-2" d="M186.52 130.07a1.5 1.5 0 1 1-.66.15 1.49 1.49 0 0 1 .66-.15m0-1a2.5 2.5 0 1 0 2.25 1.4 2.49 2.49 0 0 0-2.25-1.4z"/><circle class="cls-1" cx="159.54" cy="55.59" r="3.5" transform="rotate(-26.14 159.534 55.581)"/><path class="cls-2" d="M159.54 53.09a2.5 2.5 0 1 1-1.1.26 2.49 2.49 0 0 1 1.1-.26m0-1a3.5 3.5 0 1 0 3.14 2 3.49 3.49 0 0 0-3.14-2z"/></svg>