<svg id="Layer_1" data-name="Layer 1" xmlns="http://www.w3.org/2000/svg" viewBox="0 0 64 64"><defs><style>.cls-1{fill:#fbfbff}.cls-2{fill:#fff}.cls-3{fill:#464646}.cls-4{fill:#5bbc61}</style></defs><title>otbl-icons__spreadsheet</title><path class="cls-1" d="M-499.49-72.79H313.5V880h-812.99z"/><rect class="cls-2" x="8" y="3" width="48" height="58" rx="2" ry="2"/><path class="cls-3" d="M53 6v52H11V6h42m1-3H10a2 2 0 0 0-2 2v54a2 2 0 0 0 2 2h44a2 2 0 0 0 2-2V5a2 2 0 0 0-2-2z"/><rect class="cls-2" x="15" y="18" width="34" height="27" rx="2" ry="2"/><path class="cls-3" d="M47 20v23H17V20h30m0-2H17a2 2 0 0 0-2 2v23a2 2 0 0 0 2 2h30a2 2 0 0 0 2-2V20a2 2 0 0 0-2-2z"/><path class="cls-3" d="M16 23h32v2H16z"/><path class="cls-4" d="M17 20h30v3H17z"/><path class="cls-3" d="M17 28.5h30v1H17zM16 38.5h31v1H16zM17 33.5h30v1H17z"/><path class="cls-3" d="M26.5 24h1v19.33h-1z"/></svg>