<svg id="Layer_1" data-name="Layer 1" xmlns="http://www.w3.org/2000/svg" viewBox="0 0 133 115"><defs><style>.cls-1{fill:#fff}.cls-2{fill:#a9aeb8}.cls-3{fill:#bbd9e2}.cls-4{fill:#e9ebed}.cls-5{fill:#464646}</style></defs><title>illustrations__empty__students</title><circle class="cls-1" cx="112" cy="73" r="12" transform="rotate(-18.2 110.957 72.864)"/><path class="cls-2" d="M112 61v2a10 10 0 1 1-3.08.49A10 10 0 0 1 112 63v-2m0 0a12 12 0 1 0 11.41 8.31A12 12 0 0 0 112 61z"/><circle class="cls-1" cx="107.62" cy="68.33" r="1" transform="rotate(-81.8 107.618 68.327)"/><path class="cls-2" d="M107.62 67.33a1 1 0 0 0-.14 2h.14a1 1 0 0 0 .14-2z"/><circle class="cls-1" cx="117.52" cy="69.75" r="1" transform="rotate(-81.8 117.514 69.756)"/><path class="cls-2" d="M117.52 68.75a1 1 0 0 0-.14 2h.14a1 1 0 0 0 .14-2zM113 75.57a9.34 9.34 0 0 1-1.33-.1c-4.18-.6-5.45-3.44-5.5-3.56a.5.5 0 0 1 .92-.4c0 .1 1.12 2.45 4.73 3s5.28-1.43 5.35-1.51a.5.5 0 0 1 .77.64 6.45 6.45 0 0 1-4.94 1.93z"/><circle class="cls-1" cx="29.42" cy="82.2" r="12" transform="rotate(-46.01 29.414 82.194)"/><path class="cls-2" d="M29.42 72.2a10 10 0 1 1-7.19 3.05 9.95 9.95 0 0 1 7.19-3.05m0-2a12 12 0 1 0 8.33 3.37 12 12 0 0 0-8.33-3.37z"/><circle class="cls-1" cx="25.66" cy="83.56" r="1" transform="rotate(-19.87 25.644 83.547)"/><path class="cls-2" d="M25.66 82.56a1 1 0 1 0 .94.66 1 1 0 0 0-.94-.66z"/><circle class="cls-1" cx="33.18" cy="80.84" r="1" transform="rotate(-19.87 33.18 80.837)"/><path class="cls-2" d="M33.18 79.84a1 1 0 1 0 .94.66 1 1 0 0 0-.94-.66zM28.41 87.9a5.56 5.56 0 0 1-2.18-.38.5.5 0 0 1 .42-.91 6.19 6.19 0 0 0 4.3-.18 6.21 6.21 0 0 0 3.44-2.62.5.5 0 0 1 .9.44 7.05 7.05 0 0 1-4 3.12 8.46 8.46 0 0 1-2.88.53z"/><circle class="cls-1" cx="14" cy="33" r="12" transform="rotate(-26.14 13.992 33.005)"/><path class="cls-2" d="M14 23a10 10 0 1 1-4.4 1 9.94 9.94 0 0 1 4.4-1m0-2a12 12 0 1 0 10.78 6.71A12 12 0 0 0 14 21z"/><circle class="cls-1" cx="8" cy="36" r="1"/><path class="cls-2" d="M8 35a1 1 0 1 0 1 1 1 1 0 0 0-1-1z"/><circle class="cls-1" cx="20" cy="36" r="1"/><path class="cls-2" d="M20 35a1 1 0 1 0 1 1 1 1 0 0 0-1-1zM14 41a4.85 4.85 0 0 1-3.35-1.16.5.5 0 0 1 .71-.71A3.88 3.88 0 0 0 14 40a3.86 3.86 0 0 0 2.64-.87.5.5 0 0 1 .71.71A4.83 4.83 0 0 1 14 41z"/><circle class="cls-1" cx="75" cy="13" r="12" transform="rotate(-14.63 75.022 12.996)"/><path class="cls-2" d="M75 3a10 10 0 1 1-2.53.33A10 10 0 0 1 75 3m0-2a12 12 0 1 0 11.6 9A12 12 0 0 0 75 1z"/><circle class="cls-1" cx="70.1" cy="12" r="1" transform="rotate(-78.49 70.106 11.998)"/><path class="cls-2" d="M70.1 11a1 1 0 0 0-.2 2h.2a1 1 0 0 0 .2-2h-.2z"/><circle class="cls-1" cx="79.9" cy="14" r="1" transform="rotate(-78.49 79.906 13.993)"/><path class="cls-2" d="M79.9 13a1 1 0 0 0-.2 2h.2a1 1 0 0 0 .2-2h-.2zM74 17.9c-3.06-.62-3.94-1.84-4-2a.5.5 0 0 1 .83-.56s.78 1 3.4 1.55 3.74-.09 3.75-.1a.5.5 0 0 1 .68.16.5.5 0 0 1-.15.68c-.16.12-1.51.89-4.51.27z"/><circle class="cls-1" cx="56" cy="53" r="13" transform="rotate(-33.03 56 53.002)"/><path class="cls-2" d="M56 42a11 11 0 1 1-6 1.78A11 11 0 0 1 56 42m0-2a13 13 0 1 0 10.9 5.92A12.94 12.94 0 0 0 56 40z"/><circle class="cls-1" cx="52.38" cy="50.16" r="1.08" transform="rotate(-6.89 52.413 50.17)"/><path class="cls-2" d="M52.38 49.08h-.13a1.08 1.08 0 0 0 .13 2.16h.13a1.08 1.08 0 0 0-.13-2.16z"/><circle class="cls-1" cx="58.84" cy="49.38" r="1.08" transform="rotate(-6.89 58.879 49.392)"/><path class="cls-2" d="M58.84 48.3h-.13a1.08 1.08 0 0 0 .13 2.16H59a1.08 1.08 0 0 0-.13-2.16zM55.47 55.2a5 5 0 0 1-2.94-.85.5.5 0 0 1 .62-.79 4.88 4.88 0 0 0 5.74-.69.5.5 0 0 1 .79.62 5.19 5.19 0 0 1-3.42 1.67 6.54 6.54 0 0 1-.79.04z"/><circle class="cls-3" cx="100.64" cy="95.51" r="2.5" transform="rotate(-26.14 100.643 95.522)"/><path class="cls-2" d="M100.63 94a1.5 1.5 0 1 1-.66.15 1.49 1.49 0 0 1 .66-.15m0-1a2.5 2.5 0 1 0 2.25 1.4 2.49 2.49 0 0 0-2.25-1.4z"/><circle class="cls-3" cx="51" cy="86" r="3" transform="rotate(-26.14 50.99 85.992)"/><path class="cls-2" d="M51 84a2 2 0 1 1-.88.21A2 2 0 0 1 51 84m0-1a3 3 0 1 0 2.7 1.68A3 3 0 0 0 51 83z"/><circle class="cls-3" cx="94.63" cy="43.51" r="3.5" transform="rotate(-26.14 94.628 43.509)"/><path class="cls-2" d="M94.62 41a2.5 2.5 0 1 1-1.1.26 2.49 2.49 0 0 1 1.1-.26m0-1a3.5 3.5 0 1 0 3.14 2 3.49 3.49 0 0 0-3.14-2z"/><circle class="cls-3" cx="99.63" cy="16.52" r="2.5" transform="rotate(-26.14 99.622 16.523)"/><path class="cls-2" d="M99.62 15a1.5 1.5 0 1 1-.66.15 1.49 1.49 0 0 1 .66-.15m0-1a2.5 2.5 0 1 0 2.25 1.4 2.49 2.49 0 0 0-2.25-1.4z"/><circle class="cls-3" cx="40.62" cy="20.52" r="3.5" transform="rotate(-26.14 40.63 20.532)"/><path class="cls-2" d="M40.62 18a2.5 2.5 0 1 1-1.1.26 2.49 2.49 0 0 1 1.1-.26m0-1a3.5 3.5 0 1 0 3.14 2 3.49 3.49 0 0 0-3.14-2z"/><circle class="cls-3" cx="80.62" cy="71.51" r="3.5" transform="rotate(-26.14 80.614 71.51)"/><path class="cls-2" d="M80.62 69a2.5 2.5 0 1 1-1.1.26 2.49 2.49 0 0 1 1.1-.26m0-1a3.5 3.5 0 1 0 3.14 2 3.49 3.49 0 0 0-3.14-2z"/><circle class="cls-3" cx="26.61" cy="56.51" r="2.5" transform="rotate(-26.14 26.6 56.52)"/><path class="cls-2" d="M26.61 55a1.5 1.5 0 1 1-.66.15 1.49 1.49 0 0 1 .66-.15m0-1a2.5 2.5 0 1 0 2.25 1.4 2.49 2.49 0 0 0-2.25-1.4z"/><circle class="cls-1" cx="121" cy="31" r="11" transform="matrix(1 -.09 .09 1 -2.3 11.04)"/><path class="cls-2" d="M121 22a9 9 0 0 1 .8 18h-.82a9 9 0 0 1-.8-18h.83m0-2h-1a11 11 0 0 0 1 22h1a11 11 0 0 0-1-22z"/><circle class="cls-1" cx="114.88" cy="31.6" r=".92" transform="rotate(-69.04 114.873 31.602)"/><path class="cls-2" d="M114.88 30.68a.92.92 0 1 0 .33.06.92.92 0 0 0-.33-.06z"/><circle class="cls-1" cx="125.15" cy="35.54" r=".92" transform="rotate(-69.04 125.144 35.54)"/><path class="cls-2" d="M125.15 34.62a.92.92 0 1 0 .33.06.92.92 0 0 0-.33-.06zM120.2 38.28a5.16 5.16 0 0 1-1.85-.36 4.49 4.49 0 0 1-2.51-2.11.5.5 0 0 1 .91-.41 4.05 4.05 0 0 0 4.47 1.71.5.5 0 0 1 .41.91 3.7 3.7 0 0 1-1.43.26z"/><circle class="cls-1" cx="76" cy="98" r="15" transform="rotate(-70.2 76 98)"/><path class="cls-2" d="M76 85a13 13 0 1 1-12.23 8.6A13 13 0 0 1 76 85m0-2a15 15 0 1 0 5.08.89A15 15 0 0 0 76 83z"/><path class="cls-4" d="M67.57 100.28L81 105.13a1 1 0 0 1 .22 1.77c-1.87 1.22-5.26 2.79-9 1.45s-5.35-4.72-6-6.85a1 1 0 0 1 1.35-1.22z"/><path class="cls-2" d="M67.23 101.22l13.49 4.85a10.32 10.32 0 0 1-5.5 1.8 7.68 7.68 0 0 1-2.61-.46 9.1 9.1 0 0 1-5.39-6.19m0-1a1 1 0 0 0-1 1.29c.66 2.13 2.27 5.5 6 6.85a8.65 8.65 0 0 0 2.95.52 11.32 11.32 0 0 0 6-2 1 1 0 0 0-.22-1.77l-13.48-4.85a1 1 0 0 0-.34-.06z"/><circle class="cls-5" cx="68.44" cy="96.87" r="1.5" transform="rotate(-70.2 68.438 96.872)"/><path class="cls-2" d="M68.44 95.37a1.5 1.5 0 1 0 .51.09 1.5 1.5 0 0 0-.51-.09z"/><circle class="cls-5" cx="82.55" cy="101.95" r="1.5" transform="rotate(-70.2 82.544 101.95)"/><path class="cls-2" d="M82.55 100.45a1.5 1.5 0 1 0 .51.09 1.5 1.5 0 0 0-.51-.09z"/></svg>