<svg id="Layer_1" data-name="Layer 1" xmlns="http://www.w3.org/2000/svg" viewBox="0 0 121 84"><defs><style>.cls-1{fill:#edeef0;opacity:.5}.cls-2{fill:#fff}.cls-3{fill:#a9aeb8}.cls-4{fill:#a9aeb7}.cls-5{fill:#b6e1b8}.cls-6{fill:#fafbfd}.cls-7{fill:#e9ebed}.cls-8{fill:#bbd9e2}</style></defs><title>illustrations__empty__cases</title><path class="cls-1" d="M44 71H5a4 4 0 0 1-4-4V25a2 2 0 0 1 4 0v42h39a2 2 0 0 1 0 4z"/><rect class="cls-2" x="3" y="21" width="45" height="48" rx="2" ry="2"/><path class="cls-3" d="M46 23v44H5V23h41m0-2H5a2 2 0 0 0-2 2v44a2 2 0 0 0 2 2h41a2 2 0 0 0 2-2V23a2 2 0 0 0-2-2z"/><path class="cls-3" d="M28 31H9a1 1 0 0 1 0-2h19a1 1 0 0 1 0 2z"/><circle class="cls-2" cx="11" cy="38" r="3"/><path class="cls-4" d="M11 36a2 2 0 1 1-2 2 2 2 0 0 1 2-2m0-1a3 3 0 1 0 3 3 3 3 0 0 0-3-3zM32 39H17a1 1 0 0 1 0-2h15a1 1 0 0 1 0 2z"/><circle class="cls-2" cx="11" cy="46" r="3"/><path class="cls-5" d="M11 44a2 2 0 1 1-2 2 2 2 0 0 1 2-2m0-1a3 3 0 1 0 3 3 3 3 0 0 0-3-3zM32 47H17a1 1 0 0 1 0-2h15a1 1 0 0 1 0 2z"/><circle class="cls-2" cx="11" cy="54" r="3"/><path class="cls-4" d="M11 52a2 2 0 1 1-2 2 2 2 0 0 1 2-2m0-1a3 3 0 1 0 3 3 3 3 0 0 0-3-3zM32 55H17a1 1 0 0 1 0-2h15a1 1 0 0 1 0 2z"/><circle class="cls-6" cx="45" cy="24" r="10"/><circle class="cls-2" cx="45" cy="24" r="8"/><path class="cls-3" d="M45 18a6 6 0 1 1-6 6 6 6 0 0 1 6-6m0-2a8 8 0 1 0 8 8 8 8 0 0 0-8-8z"/><path class="cls-3" d="M48 25.5h-3a.5.5 0 0 1-.5-.5v-4a.5.5 0 0 1 1 0v3.5H48a.5.5 0 0 1 0 1z"/><path class="cls-1" d="M116 71H77a4 4 0 0 1-4-4V25a2 2 0 0 1 4 0v42h39a2 2 0 0 1 0 4z"/><rect class="cls-2" x="75" y="21" width="45" height="48" rx="2" ry="2"/><path class="cls-3" d="M118 23v44H77V23h41m0-2H77a2 2 0 0 0-2 2v44a2 2 0 0 0 2 2h41a2 2 0 0 0 2-2V23a2 2 0 0 0-2-2z"/><path class="cls-3" d="M113 35H98a1 1 0 0 1 0-2h15a1 1 0 0 1 0 2z"/><path class="cls-7" d="M112.5 47h-29a1.5 1.5 0 0 1 0-3h29a1.5 1.5 0 0 1 0 3z"/><path class="cls-3" d="M87.5 28a5.5 5.5 0 1 1-5.5 5.5 5.51 5.51 0 0 1 5.5-5.5m0-1a6.5 6.5 0 1 0 6.5 6.5 6.5 6.5 0 0 0-6.5-6.5z"/><circle class="cls-3" cx="85" cy="33" r="1"/><circle class="cls-3" cx="90" cy="33" r="1"/><path class="cls-3" d="M87.5 37a4.87 4.87 0 0 1-3.35-1.15.5.5 0 0 1 .7-.71 4.53 4.53 0 0 0 5.3 0 .5.5 0 0 1 .7.71A4.87 4.87 0 0 1 87.5 37z"/><path class="cls-8" d="M102.5 47h-19a1.5 1.5 0 0 1 0-3h19a1.5 1.5 0 0 1 0 3z"/><circle class="cls-2" cx="102.5" cy="45.5" r="3.5"/><path class="cls-7" d="M102.5 43a2.5 2.5 0 1 1-2.5 2.5 2.5 2.5 0 0 1 2.5-2.5m0-1a3.5 3.5 0 1 0 3.5 3.5 3.5 3.5 0 0 0-3.5-3.5z"/><rect class="cls-2" x="82" y="53" width="32" height="10" rx="1" ry="1"/><path class="cls-7" d="M113 54v8H83v-8h30m0-1H83a1 1 0 0 0-1 1v8a1 1 0 0 0 1 1h30a1 1 0 0 0 1-1v-8a1 1 0 0 0-1-1z"/><circle class="cls-8" cx="100.68" cy="4.5" r="3.5" transform="rotate(-26.14 100.685 4.513)"/><path class="cls-3" d="M100.68 2a2.5 2.5 0 1 1-1.1.26 2.49 2.49 0 0 1 1.1-.26m0-1a3.5 3.5 0 1 0 3.14 2 3.49 3.49 0 0 0-3.14-2z"/><circle class="cls-8" cx="56.67" cy="78.52" r="2.5" transform="rotate(-26.14 56.673 78.527)"/><path class="cls-3" d="M56.67 77a1.5 1.5 0 1 1-.66.15 1.49 1.49 0 0 1 .66-.15m0-1a2.5 2.5 0 1 0 2.25 1.4 2.49 2.49 0 0 0-2.25-1.4z"/><circle class="cls-8" cx="13.65" cy="7.5" r="3.5" transform="rotate(-26.14 13.647 7.504)"/><path class="cls-3" d="M13.65 5a2.5 2.5 0 1 1-1.1.26 2.49 2.49 0 0 1 1.1-.26m0-1a3.5 3.5 0 1 0 3.15 2 3.49 3.49 0 0 0-3.14-2z"/><circle class="cls-8" cx="66.64" cy="35.52" r="2.5" transform="rotate(-26.14 66.637 35.512)"/><path class="cls-3" d="M66.64 34a1.5 1.5 0 1 1-.66.15 1.49 1.49 0 0 1 .66-.15m0-1a2.5 2.5 0 1 0 2.25 1.4 2.49 2.49 0 0 0-2.25-1.4z"/><circle class="cls-8" cx="99.66" cy="79.52" r="3.5" transform="rotate(-26.14 99.66 79.519)"/><path class="cls-3" d="M99.66 77a2.5 2.5 0 1 1-1.1.26 2.49 2.49 0 0 1 1.1-.26m0-1a3.5 3.5 0 1 0 3.14 2 3.49 3.49 0 0 0-3.14-2z"/></svg>