<svg id="Layer_1" data-name="Layer 1" xmlns="http://www.w3.org/2000/svg" viewBox="0 0 64 64"><defs><style>.cls-1,.cls-4,.cls-6,.cls-8{fill:none;stroke-linecap:round;stroke-miterlimit:10}.cls-1{stroke:#d4d6da;stroke-width:4px}.cls-2{fill:#fff}.cls-3{fill:#464646}.cls-4{stroke:#464646}.cls-4,.cls-6,.cls-8{stroke-width:2px}.cls-5{fill:#a9aeb7}.cls-6{stroke:#a9aeb7}.cls-7{fill:#5cbb61}.cls-8{stroke:#5cbb61}.cls-9{fill:#fafbfd}.cls-10{opacity:.5}.cls-11{fill:#a9aeb8}</style></defs><title>icons__exercise-type__locked</title><path class="cls-1" d="M6 10v42a2 2 0 0 0 2 2h39"/><rect class="cls-2" x="7" y="7" width="43" height="46" rx="1" ry="1"/><path class="cls-3" d="M49 8v44H8V8h41m0-2H8a2 2 0 0 0-2 2v44a2 2 0 0 0 2 2h41a2 2 0 0 0 2-2V8a2 2 0 0 0-2-2z"/><path class="cls-4" d="M12 15h19"/><circle class="cls-2" cx="14" cy="23" r="2.5"/><path class="cls-5" d="M14 21a2 2 0 1 1-2 2 2 2 0 0 1 2-2m0-1a3 3 0 1 0 3 3 3 3 0 0 0-3-3z"/><path class="cls-6" d="M20 23h15"/><circle class="cls-2" cx="14" cy="31" r="2.5"/><path class="cls-7" d="M14 29a2 2 0 1 1-2 2 2 2 0 0 1 2-2m0-1a3 3 0 1 0 3 3 3 3 0 0 0-3-3z"/><path class="cls-8" d="M20 31h15"/><circle class="cls-2" cx="14" cy="39" r="2.5"/><path class="cls-5" d="M14 37a2 2 0 1 1-2 2 2 2 0 0 1 2-2m0-1a3 3 0 1 0 3 3 3 3 0 0 0-3-3z"/><path class="cls-6" d="M20 39h15"/><path class="cls-2" d="M44 61.7a14.89 14.89 0 0 1-2.82-.87 14.89 14.89 0 0 0 2.82.87zM41.16 33.18A14.88 14.88 0 0 1 44 32.3a14.88 14.88 0 0 0-2.84.88zM34.56 55.39a15.08 15.08 0 0 0 2.9 3.19 15.08 15.08 0 0 1-2.9-3.19zM47 62a15.07 15.07 0 0 1-3-.3 15.07 15.07 0 0 0 3 .3zM45 25.3a15.07 15.07 0 0 1 3-.3 15.07 15.07 0 0 0-3 .3zM37.46 35.43a15.08 15.08 0 0 0-2.9 3.19 15.08 15.08 0 0 1 2.9-3.19z"/><circle class="cls-9" cx="47" cy="47" r="17"/><circle class="cls-10 cls-11" cx="47" cy="47" r="15"/><path class="cls-3" d="M52 44h-.92c0-1.71-.37-5-4.08-5s-4.11 3.29-4.08 5H42a1 1 0 0 0-1 1v8a1 1 0 0 0 1 1h10a1 1 0 0 0 1-1v-8a1 1 0 0 0-1-1zm-5-3c2 0 2.23 1.82 2.14 3h-4.28c-.09-1.18.14-3 2.14-3z"/></svg>