<svg id="Layer_1" data-name="Layer 1" xmlns="http://www.w3.org/2000/svg" viewBox="0 0 64 64"><defs><style>.cls-1,.cls-4,.cls-6,.cls-7,.cls-8{fill:none;stroke-linecap:round;stroke-miterlimit:10}.cls-1,.cls-6{stroke:#a9aeb7}.cls-1{stroke-width:4px}.cls-1,.cls-5{opacity:.5}.cls-2{fill:#fff}.cls-3{fill:#464646}.cls-4,.cls-7{stroke:#464646}.cls-4{stroke-width:2px}.cls-6,.cls-8{stroke-width:3px}.cls-8{stroke:#01a5c7}.cls-9{fill:#a9aeb7}</style></defs><title>pe</title><path class="cls-1" d="M10 12v42a2 2 0 0 0 2 2h39"/><rect class="cls-2" x="11" y="9" width="43" height="46" rx="1" ry="1"/><path class="cls-3" d="M53 10v44H12V10h41m0-2H12a2 2 0 0 0-2 2v44a2 2 0 0 0 2 2h41a2 2 0 0 0 2-2V10a2 2 0 0 0-2-2z"/><path class="cls-4" d="M33 21h15"/><path class="cls-5 cls-6" d="M18.5 32.5h29"/><path class="cls-3" d="M22.5 15a5.5 5.5 0 1 1-5.5 5.5 5.51 5.51 0 0 1 5.5-5.5m0-1a6.5 6.5 0 1 0 6.5 6.5 6.5 6.5 0 0 0-6.5-6.5z"/><circle class="cls-3" cx="20" cy="20" r="1"/><circle class="cls-3" cx="25" cy="20" r="1"/><path class="cls-7" d="M19.5 22.5a4.38 4.38 0 0 0 3 1 4.38 4.38 0 0 0 3-1"/><path class="cls-8" d="M18.5 32.5h19"/><circle class="cls-2" cx="37.5" cy="32.5" r="3"/><path class="cls-9" d="M37.5 30a2.5 2.5 0 1 1-2.5 2.5 2.5 2.5 0 0 1 2.5-2.5m0-1a3.5 3.5 0 1 0 3.5 3.5 3.5 3.5 0 0 0-3.5-3.5z"/><rect class="cls-2" x="17.5" y="40.5" width="31" height="9" rx=".5" ry=".5"/><path class="cls-9" d="M48 41v8H18v-8h30m0-1H18a1 1 0 0 0-1 1v8a1 1 0 0 0 1 1h30a1 1 0 0 0 1-1v-8a1 1 0 0 0-1-1z"/></svg>