<svg id="Layer_1" data-name="Layer 1" xmlns="http://www.w3.org/2000/svg" viewBox="0 0 64 64"><defs><style>.cls-1,.cls-10,.cls-4,.cls-6,.cls-8{fill:none;stroke-linecap:round}.cls-1,.cls-6{stroke:#a9aeb7}.cls-1,.cls-4,.cls-6,.cls-8{stroke-miterlimit:10}.cls-1{stroke-width:4px;opacity:.5}.cls-2{fill:#fff}.cls-3{fill:#464646}.cls-10,.cls-4{stroke:#464646}.cls-4,.cls-6,.cls-8{stroke-width:2px}.cls-5{fill:#a9aeb7}.cls-7{fill:#5cbb61}.cls-8{stroke:#5cbb61}.cls-9{fill:#fafbfd}.cls-10{stroke-linejoin:round;fill-rule:evenodd}</style></defs><title>rat</title><path class="cls-1" d="M8 13v42a2 2 0 0 0 2 2h39"/><rect class="cls-2" x="9" y="10" width="43" height="46" rx="1" ry="1"/><path class="cls-3" d="M51 11v44H10V11h41m0-2H10a2 2 0 0 0-2 2v44a2 2 0 0 0 2 2h41a2 2 0 0 0 2-2V11a2 2 0 0 0-2-2z"/><path class="cls-4" d="M14 18h19"/><circle class="cls-2" cx="16" cy="26" r="2.5"/><path class="cls-5" d="M16 24a2 2 0 1 1-2 2 2 2 0 0 1 2-2m0-1a3 3 0 1 0 3 3 3 3 0 0 0-3-3z"/><path class="cls-6" d="M22 26h15"/><circle class="cls-2" cx="16" cy="34" r="2.5"/><path class="cls-7" d="M16 32a2 2 0 1 1-2 2 2 2 0 0 1 2-2m0-1a3 3 0 1 0 3 3 3 3 0 0 0-3-3z"/><path class="cls-8" d="M22 34h15"/><circle class="cls-2" cx="16" cy="42" r="2.5"/><path class="cls-5" d="M16 40a2 2 0 1 1-2 2 2 2 0 0 1 2-2m0-1a3 3 0 1 0 3 3 3 3 0 0 0-3-3z"/><path class="cls-6" d="M22 42h15"/><circle class="cls-9" cx="50.13" cy="11.88" r="10"/><circle class="cls-2" cx="50" cy="12" r="7"/><path class="cls-3" d="M50 6a6 6 0 1 1-6 6 6 6 0 0 1 6-6m0-2a8 8 0 1 0 8 8 8 8 0 0 0-8-8z"/><path class="cls-10" d="M50 9v4h3"/></svg>