<svg id="Layer_1" data-name="Layer 1" xmlns="http://www.w3.org/2000/svg" viewBox="0 0 43 42"><defs><style>.cls-1{fill:#fcb725;}.cls-2{fill:#464646;}.cls-3{fill:#12a6c7;}</style></defs><title>otbl-logo_builder</title><path class="cls-1" d="M23.4,13.15l1.76,3.54a1.93,1.93,0,0,0,1.45,1.05l3.91.58a1.93,1.93,0,0,1,1.07,3.29l-2.82,2.77a1.93,1.93,0,0,0-.55,1.7l.66,3.9a1.93,1.93,0,0,1-2.8,2l-3.5-1.83a1.93,1.93,0,0,0-1.79,0L17.27,32a1.93,1.93,0,0,1-2.8-2l.66-3.9a1.93,1.93,0,0,0-.55-1.7l-2.82-2.77a1.93,1.93,0,0,1,1.07-3.29l3.91-.58a1.93,1.93,0,0,0,1.45-1.05l1.76-3.54A1.93,1.93,0,0,1,23.4,13.15Z"/><path class="cls-2" d="M21.67,13.08a.92.92,0,0,1,.84.52l1.76,3.54a2.93,2.93,0,0,0,2.2,1.6l3.91.58a.93.93,0,0,1,.52,1.59l-2.82,2.77a2.93,2.93,0,0,0-.84,2.58l.66,3.9a.9.9,0,0,1-.2.75,1,1,0,0,1-.72.34.93.93,0,0,1-.43-.11L23,29.3a2.93,2.93,0,0,0-2.72,0l-3.5,1.83a.93.93,0,0,1-.43.11,1,1,0,0,1-.72-.34.9.9,0,0,1-.2-.75l.66-3.9a2.93,2.93,0,0,0-.84-2.58L12.45,20.9A.93.93,0,0,1,13,19.31l3.91-.58a2.93,2.93,0,0,0,2.2-1.6l1.76-3.54a.92.92,0,0,1,.84-.52m0-1a1.91,1.91,0,0,0-1.73,1.07l-1.76,3.54a1.93,1.93,0,0,1-1.45,1.05l-3.91.58a1.93,1.93,0,0,0-1.07,3.29l2.82,2.77a1.93,1.93,0,0,1,.55,1.7L14.47,30a1.93,1.93,0,0,0,2.8,2l3.5-1.83a1.93,1.93,0,0,1,1.79,0L26.07,32a1.93,1.93,0,0,0,2.8-2l-.66-3.9a1.93,1.93,0,0,1,.55-1.7l2.82-2.77a1.93,1.93,0,0,0-1.07-3.29l-3.91-.58a1.93,1.93,0,0,1-1.45-1.05L23.4,13.15a1.91,1.91,0,0,0-1.73-1.07Z"/><circle class="cls-3" cx="22" cy="4.06" r="3" transform="translate(0.46 10.11) rotate(-26.14)"/><path class="cls-2" d="M22,2.06h0a2,2,0,1,1-.88.21A2,2,0,0,1,22,2.06m0-1a3,3,0,1,0,2.69,1.68A3,3,0,0,0,22,1.06Z"/><circle class="cls-3" cx="39" cy="18.06" r="3" transform="translate(-3.97 19.03) rotate(-26.14)"/><path class="cls-2" d="M39,16.06h0a2,2,0,1,1-.88.21,2,2,0,0,1,.88-.21m0-1a3,3,0,1,0,2.69,1.68A3,3,0,0,0,39,15.06Z"/><circle class="cls-3" cx="4" cy="19.06" r="3" transform="translate(-7.99 3.71) rotate(-26.14)"/><path class="cls-2" d="M4,17.06H4a2,2,0,1,1-.88.21A2,2,0,0,1,4,17.06m0-1a3,3,0,1,0,2.69,1.68A3,3,0,0,0,4,16.06Z"/><circle class="cls-3" cx="32" cy="38.06" r="3" transform="translate(-13.5 17.99) rotate(-26.14)"/><path class="cls-2" d="M32,36.06h0a2,2,0,1,1-.88.21,2,2,0,0,1,.88-.21m0-1a3,3,0,1,0,2.69,1.68A3,3,0,0,0,32,35.06Z"/><circle class="cls-3" cx="10" cy="38.06" r="3" transform="translate(-15.75 8.3) rotate(-26.14)"/><path class="cls-2" d="M10,36.06h0a2,2,0,1,1-.88.21,2,2,0,0,1,.88-.21m0-1a3,3,0,1,0,2.69,1.68A3,3,0,0,0,10,35.06Z"/></svg>