<svg id="Layer_1" data-name="Layer 1" xmlns="http://www.w3.org/2000/svg" viewBox="0 0 79 79"><defs><style>.cls-1{fill:#fcb725;}.cls-2{fill:#464646;}.cls-3{fill:#fff;}.cls-4{fill:#12a6c7;}</style></defs><title>otbl_logo_default</title><path class="cls-1" d="M40.4,29.09l1.76,3.54a1.93,1.93,0,0,0,1.45,1.05l3.91.58a1.93,1.93,0,0,1,1.07,3.29l-2.82,2.77a1.93,1.93,0,0,0-.55,1.7l.66,3.9a1.93,1.93,0,0,1-2.8,2l-3.5-1.83a1.93,1.93,0,0,0-1.79,0L34.27,48a1.93,1.93,0,0,1-2.8-2l.66-3.9a1.93,1.93,0,0,0-.55-1.7l-2.82-2.77a1.93,1.93,0,0,1,1.07-3.29l3.91-.58a1.93,1.93,0,0,0,1.45-1.05l1.76-3.54A1.93,1.93,0,0,1,40.4,29.09Z"/><path class="cls-2" d="M38.67,29a.92.92,0,0,1,.84.52l1.76,3.54a2.93,2.93,0,0,0,2.2,1.6l3.91.58a.93.93,0,0,1,.52,1.59l-2.82,2.77a2.93,2.93,0,0,0-.84,2.58l.66,3.9a.9.9,0,0,1-.2.75,1,1,0,0,1-.72.34.93.93,0,0,1-.43-.11L40,45.24a2.93,2.93,0,0,0-2.72,0l-3.5,1.83a.93.93,0,0,1-.43.11,1,1,0,0,1-.72-.34.9.9,0,0,1-.2-.75l.66-3.9a2.93,2.93,0,0,0-.84-2.58l-2.82-2.77A.93.93,0,0,1,30,35.25l3.91-.58a2.93,2.93,0,0,0,2.2-1.6l1.76-3.54a.92.92,0,0,1,.84-.52m0-1a1.91,1.91,0,0,0-1.73,1.07l-1.76,3.54a1.93,1.93,0,0,1-1.45,1.05l-3.91.58a1.93,1.93,0,0,0-1.07,3.29l2.82,2.77a1.93,1.93,0,0,1,.55,1.7l-.66,3.9a1.93,1.93,0,0,0,2.8,2l3.5-1.83a1.93,1.93,0,0,1,1.79,0L43.07,48a1.93,1.93,0,0,0,2.8-2L45.21,42a1.93,1.93,0,0,1,.55-1.7l2.82-2.77a1.93,1.93,0,0,0-1.07-3.29l-3.91-.58a1.93,1.93,0,0,1-1.45-1.05L40.4,29.09A1.91,1.91,0,0,0,38.67,28Z"/><circle class="cls-3" cx="53" cy="19" r="12" transform="translate(-2.95 25.29) rotate(-26.14)"/><path class="cls-2" d="M53,9h0a10,10,0,1,1-4.4,1A9.94,9.94,0,0,1,53,9m0-2a12,12,0,1,0,10.78,6.71A12,12,0,0,0,53,7Z"/><circle class="cls-3" cx="24" cy="20" r="12" transform="translate(-6.36 12.62) rotate(-26.14)"/><path class="cls-2" d="M24,10h0a10,10,0,1,1-4.4,1A9.94,9.94,0,0,1,24,10m0-2a12,12,0,1,0,10.78,6.71A12,12,0,0,0,24,8Z"/><circle class="cls-3" cx="16" cy="47" r="12" transform="translate(-19.07 11.86) rotate(-26.14)"/><path class="cls-2" d="M16,37h0a10,10,0,1,1-4.4,1A9.94,9.94,0,0,1,16,37m0-2a12,12,0,1,0,10.78,6.71A12,12,0,0,0,16,35Z"/><circle class="cls-3" cx="62" cy="46" r="12" transform="translate(-13.92 32.02) rotate(-26.14)"/><path class="cls-2" d="M62,36h0a10,10,0,1,1-4.4,1A9.94,9.94,0,0,1,62,36m0-2a12,12,0,1,0,10.78,6.71A12,12,0,0,0,62,34Z"/><circle class="cls-3" cx="39" cy="63" r="12" transform="translate(-23.77 23.63) rotate(-26.14)"/><path class="cls-2" d="M39,53h0a10,10,0,1,1-4.4,1A9.94,9.94,0,0,1,39,53m0-2a12,12,0,1,0,10.78,6.71A12,12,0,0,0,39,51Z"/><circle class="cls-4" cx="38" cy="6" r="3" transform="translate(1.24 17.36) rotate(-26.14)"/><path class="cls-2" d="M38,4h0a2,2,0,1,1-.88.21A2,2,0,0,1,38,4m0-1a3,3,0,1,0,2.69,1.68A3,3,0,0,0,38,3Z"/><circle class="cls-4" cx="70" cy="28" r="3" transform="translate(-5.18 33.7) rotate(-26.14)"/><path class="cls-2" d="M70,26h0a2,2,0,1,1-.88.21A2,2,0,0,1,70,26m0-1a3,3,0,1,0,2.69,1.68A3,3,0,0,0,70,25Z"/><circle class="cls-4" cx="8" cy="30" r="3" transform="translate(-12.4 6.59) rotate(-26.14)"/><path class="cls-2" d="M8,28H8a2,2,0,1,1-.88.21A2,2,0,0,1,8,28m0-1a3,3,0,1,0,2.69,1.68A3,3,0,0,0,8,27Z"/><circle class="cls-4" cx="58" cy="64" r="3" transform="translate(-22.26 32.1) rotate(-26.14)"/><path class="cls-2" d="M58,62h0a2,2,0,1,1-.88.21A2,2,0,0,1,58,62m0-1a3,3,0,1,0,2.69,1.68A3,3,0,0,0,58,61Z"/><circle class="cls-4" cx="20" cy="65" r="3" transform="translate(-26.59 15.46) rotate(-26.14)"/><path class="cls-2" d="M20,63h0a2,2,0,1,1-.88.21A2,2,0,0,1,20,63m0-1a3,3,0,1,0,2.69,1.68A3,3,0,0,0,20,62Z"/><circle class="cls-3" cx="48" cy="19" r="1"/><path class="cls-2" d="M48,18a1,1,0,1,0,1,1,1,1,0,0,0-1-1Z"/><circle class="cls-3" cx="58" cy="19" r="1"/><path class="cls-2" d="M58,18a1,1,0,1,0,1,1,1,1,0,0,0-1-1Z"/><circle class="cls-3" cx="58" cy="46" r="1"/><path class="cls-2" d="M58,45a1,1,0,1,0,1,1,1,1,0,0,0-1-1Z"/><circle class="cls-3" cx="66" cy="46" r="1"/><path class="cls-2" d="M66,45a1,1,0,1,0,1,1,1,1,0,0,0-1-1Z"/><circle class="cls-3" cx="34" cy="59" r="1"/><path class="cls-2" d="M34,58a1,1,0,1,0,1,1,1,1,0,0,0-1-1Z"/><circle class="cls-3" cx="44" cy="59" r="1"/><path class="cls-2" d="M44,58a1,1,0,1,0,1,1,1,1,0,0,0-1-1Z"/><circle class="cls-3" cx="18" cy="23" r="1"/><path class="cls-2" d="M18,22a1,1,0,1,0,1,1,1,1,0,0,0-1-1Z"/><circle class="cls-3" cx="30" cy="23" r="1"/><path class="cls-2" d="M30,22a1,1,0,1,0,1,1,1,1,0,0,0-1-1Z"/><circle class="cls-3" cx="13" cy="44" r="1"/><path class="cls-2" d="M13,43a1,1,0,1,0,1,1,1,1,0,0,0-1-1Z"/><circle class="cls-3" cx="19" cy="44" r="1"/><path class="cls-2" d="M19,43a1,1,0,1,0,1,1,1,1,0,0,0-1-1Z"/><path class="cls-2" d="M39,65.5c-4.23,0-5.88-2.63-6-2.74a.5.5,0,0,1,.85-.52h0c.06.09,1.46,2.26,5.1,2.26s5.06-2.24,5.08-2.26a.5.5,0,1,1,.86.52C44.86,62.87,43.22,65.5,39,65.5Z"/><path class="cls-2" d="M62,51.5a7,7,0,0,1-4.81-1.58.5.5,0,0,1,.7-.71A6.18,6.18,0,0,0,62,50.5a6.22,6.22,0,0,0,4.12-1.3.5.5,0,0,1,.7.72A7.06,7.06,0,0,1,62,51.5Z"/><path class="cls-2" d="M24,28a4.85,4.85,0,0,1-3.35-1.16.5.5,0,0,1,.71-.71A3.88,3.88,0,0,0,24,27a3.86,3.86,0,0,0,2.64-.87.5.5,0,0,1,.71.71A4.83,4.83,0,0,1,24,28Z"/><path class="cls-2" d="M53,24c-3.12,0-4.23-1-4.34-1.13a.5.5,0,0,1,.7-.71s1,.84,3.65.84,3.65-.84,3.66-.85a.5.5,0,0,1,.7,0,.5.5,0,0,1,0,.7C57.23,23,56.1,24,53,24Z"/><path class="cls-2" d="M16,49a4.85,4.85,0,0,1-3.35-1.16.5.5,0,0,1,.71-.71A3.88,3.88,0,0,0,16,48a3.86,3.86,0,0,0,2.64-.87.5.5,0,0,1,.71,0,.5.5,0,0,1,0,.7A4.83,4.83,0,0,1,16,49Z"/></svg>