<svg id="Layer_1" data-name="Layer 1" xmlns="http://www.w3.org/2000/svg" viewBox="0 0 80 80"><defs><style>.cls-1{fill:#fcb725}.cls-2{fill:#464646}.cls-3{fill:#12a6c7}.cls-4{fill:#fff}</style></defs><title>loader__logo--stroke</title><g id="star"><path class="cls-1" d="M45 48.68a1.42 1.42 0 0 1-.66-.17l-3.5-1.83a2.42 2.42 0 0 0-2.25 0L35 48.51a1.42 1.42 0 0 1-.66.17 1.46 1.46 0 0 1-1.1-.52A1.4 1.4 0 0 1 33 47l.66-3.9a2.43 2.43 0 0 0-.7-2.14L30.1 38.2a1.43 1.43 0 0 1 .79-2.44l3.91-.58a2.44 2.44 0 0 0 1.82-1.33l1.76-3.54a1.43 1.43 0 0 1 2.57 0l1.76 3.54a2.44 2.44 0 0 0 1.82 1.33l3.91.58a1.43 1.43 0 0 1 .79 2.44L46.41 41a2.44 2.44 0 0 0-.7 2.14l.66 3.9a1.4 1.4 0 0 1-.31 1.16 1.46 1.46 0 0 1-1.06.48z"/><path class="cls-2" d="M39.67 30a.92.92 0 0 1 .84.52l1.76 3.54a2.93 2.93 0 0 0 2.2 1.6l3.91.58a.93.93 0 0 1 .52 1.59l-2.82 2.77a2.93 2.93 0 0 0-.84 2.58l.66 3.9a.9.9 0 0 1-.2.75 1 1 0 0 1-.72.34.93.93 0 0 1-.43-.11L41 46.24a2.93 2.93 0 0 0-2.72 0l-3.5 1.83a.93.93 0 0 1-.43.11 1 1 0 0 1-.72-.34.9.9 0 0 1-.2-.75l.66-3.9a2.93 2.93 0 0 0-.84-2.58l-2.82-2.77a.93.93 0 0 1 .57-1.59l3.91-.58a2.93 2.93 0 0 0 2.2-1.6l1.76-3.54a.92.92 0 0 1 .84-.52m0-1a1.91 1.91 0 0 0-1.73 1.07l-1.76 3.54a1.93 1.93 0 0 1-1.45 1.05l-3.91.58a1.93 1.93 0 0 0-1.07 3.29l2.82 2.77a1.93 1.93 0 0 1 .55 1.7l-.66 3.9a1.93 1.93 0 0 0 2.8 2l3.5-1.83a1.93 1.93 0 0 1 1.79 0L44.07 49a1.93 1.93 0 0 0 2.8-2l-.66-4a1.93 1.93 0 0 1 .55-1.7l2.82-2.77a1.93 1.93 0 0 0-1.07-3.29l-3.91-.58a1.93 1.93 0 0 1-1.45-1.05l-1.75-3.52A1.91 1.91 0 0 0 39.67 29z"/></g><g id="faces-dots"><path class="cls-3" d="M39 9.5a2.5 2.5 0 1 1 1.1-.26 2.48 2.48 0 0 1-1.1.26z"/><path class="cls-2" d="M39 5a2 2 0 1 1-.88.21A2 2 0 0 1 39 5m0-1a3 3 0 1 0 2.69 1.68A3 3 0 0 0 39 4z"/><path class="cls-3" d="M71 31.5a2.5 2.5 0 1 1 1.1-.26 2.48 2.48 0 0 1-1.1.26z"/><path class="cls-2" d="M71 27a2 2 0 1 1-.88.21A2 2 0 0 1 71 27m0-1a3 3 0 1 0 2.69 1.68A3 3 0 0 0 71 26z"/><path class="cls-3" d="M9 33.5a2.5 2.5 0 1 1 1.1-.26 2.48 2.48 0 0 1-1.1.26z"/><path class="cls-2" d="M9 29a2 2 0 1 1-.88.21A2 2 0 0 1 9 29m0-1a3 3 0 1 0 2.69 1.68A3 3 0 0 0 9 28z"/><path class="cls-3" d="M59 67.5a2.5 2.5 0 1 1 1.1-.26 2.48 2.48 0 0 1-1.1.26z"/><path class="cls-2" d="M59 63a2 2 0 1 1-.88.21A2 2 0 0 1 59 63m0-1a3 3 0 1 0 2.69 1.68A3 3 0 0 0 59 62z"/><path class="cls-3" d="M21 68.5a2.5 2.5 0 1 1 1.1-.26 2.48 2.48 0 0 1-1.1.26z"/><path class="cls-2" d="M21 64a2 2 0 1 1-.88.21A2 2 0 0 1 21 64m0-1a3 3 0 1 0 2.69 1.68A3 3 0 0 0 21 63z"/><g id="face-5"><path class="cls-4" d="M40 75a11 11 0 1 1 4.84-1.13A10.94 10.94 0 0 1 40 75z"/><path class="cls-2" d="M40 54a10 10 0 1 1-4.4 1 9.94 9.94 0 0 1 4.4-1m0-2a12 12 0 1 0 10.78 6.71A12 12 0 0 0 40 52z"/><circle class="cls-4" cx="35" cy="60" r="1"/><path class="cls-2" d="M35 59a1 1 0 1 0 1 1 1 1 0 0 0-1-1z"/><circle class="cls-4" cx="45" cy="60" r="1"/><path class="cls-2" d="M45 59a1 1 0 1 0 1 1 1 1 0 0 0-1-1zM40 66.5c-4.23 0-5.88-2.63-6-2.74a.5.5 0 0 1 .85-.52c.06.09 1.46 2.26 5.1 2.26s5.06-2.24 5.08-2.26a.5.5 0 1 1 .86.52c-.03.11-1.67 2.74-5.89 2.74z"/></g><g id="face-4"><path class="cls-4" d="M63 58a11 11 0 1 1 4.84-1.13A10.94 10.94 0 0 1 63 58z"/><path class="cls-2" d="M63 37a10 10 0 1 1-4.4 1 9.94 9.94 0 0 1 4.4-1m0-2a12 12 0 1 0 10.78 6.71A12 12 0 0 0 63 35z"/><circle class="cls-4" cx="59" cy="47" r="1"/><path class="cls-2" d="M59 46a1 1 0 1 0 1 1 1 1 0 0 0-1-1z"/><circle class="cls-4" cx="67" cy="47" r="1"/><path class="cls-2" d="M67 46a1 1 0 1 0 1 1 1 1 0 0 0-1-1zM63 52.5a7 7 0 0 1-4.81-1.58.5.5 0 0 1 .7-.71 7.19 7.19 0 0 0 8.23 0 .5.5 0 0 1 .7.72A7.05 7.05 0 0 1 63 52.5z"/></g><g id="face-3"><path class="cls-4" d="M25 32a11 11 0 1 1 4.84-1.13A10.93 10.93 0 0 1 25 32z"/><path class="cls-2" d="M25 11a10 10 0 1 1-4.4 1 9.94 9.94 0 0 1 4.4-1m0-2a12 12 0 1 0 10.78 6.71A12 12 0 0 0 25 9z"/><circle class="cls-4" cx="19" cy="24" r="1"/><path class="cls-2" d="M19 23a1 1 0 1 0 1 1 1 1 0 0 0-1-1z"/><circle class="cls-4" cx="31" cy="24" r="1"/><path class="cls-2" d="M31 23a1 1 0 1 0 1 1 1 1 0 0 0-1-1zM25 29a4.85 4.85 0 0 1-3.35-1.16.5.5 0 0 1 .71-.71A3.88 3.88 0 0 0 25 28a3.86 3.86 0 0 0 2.64-.87.5.5 0 0 1 .71.71A4.83 4.83 0 0 1 25 29z"/></g><g id="face-2"><path class="cls-4" d="M54 31a11 11 0 1 1 4.84-1.13A10.93 10.93 0 0 1 54 31z"/><path class="cls-2" d="M54 10a10 10 0 1 1-4.4 1 9.94 9.94 0 0 1 4.4-1m0-2a12 12 0 1 0 10.78 6.71A12 12 0 0 0 54 8z"/><circle class="cls-4" cx="49" cy="20" r="1"/><path class="cls-2" d="M49 19a1 1 0 1 0 1 1 1 1 0 0 0-1-1z"/><circle class="cls-4" cx="59" cy="20" r="1"/><path class="cls-2" d="M59 19a1 1 0 1 0 1 1 1 1 0 0 0-1-1zM54 25c-3.12 0-4.23-1-4.34-1.13a.5.5 0 0 1 .7-.71s1 .84 3.65.84 3.65-.84 3.66-.85a.5.5 0 0 1 .7 0 .5.5 0 0 1 0 .7C58.23 24 57.1 25 54 25z"/></g><g id="face-1"><path class="cls-4" d="M17 59a11 11 0 1 1 4.84-1.13A10.94 10.94 0 0 1 17 59z"/><path class="cls-2" d="M17 38a10 10 0 1 1-4.4 1 9.94 9.94 0 0 1 4.4-1m0-2a12 12 0 1 0 10.78 6.71A12 12 0 0 0 17 36z"/><circle class="cls-4" cx="14" cy="45" r="1"/><path class="cls-2" d="M14 44a1 1 0 1 0 1 1 1 1 0 0 0-1-1z"/><circle class="cls-4" cx="20" cy="45" r="1"/><path class="cls-2" d="M20 44a1 1 0 1 0 1 1 1 1 0 0 0-1-1zM17 50a4.85 4.85 0 0 1-3.35-1.16.5.5 0 0 1 .71-.71A3.89 3.89 0 0 0 17 49a3.87 3.87 0 0 0 2.64-.87.5.5 0 0 1 .71.71A4.83 4.83 0 0 1 17 50z"/></g><animateTransform attributeName="transform" type="rotate" from="0 40 40" to="360 40 40" dur="2s" repeatCount="indefinite"/></g></svg>