<svg id="Layer_1" data-name="Layer 1" xmlns="http://www.w3.org/2000/svg" viewBox="0 0 32 32"><defs><style>.cls-1{fill:#12a6c7}</style></defs><title>otbl-icons__trash-outline_blue</title><path class="cls-1" d="M25 11v17H7V11h18m3-3H4v21a2 2 0 0 0 2 2h20a2 2 0 0 0 2-2V8z"/><path class="cls-1" d="M11 25a1 1 0 0 1-1-1v-9a1 1 0 0 1 2 0v9a1 1 0 0 1-1 1zM16 25a1 1 0 0 1-1-1v-9a1 1 0 0 1 2 0v9a1 1 0 0 1-1 1zM21 25a1 1 0 0 1-1-1v-9a1 1 0 0 1 2 0v9a1 1 0 0 1-1 1zM27 2h-7a2 2 0 0 0-2-2h-3a2 2 0 0 0-2 2H5a2 2 0 0 0 0 4h22a2 2 0 0 0 0-4z"/></svg>