<svg id="Layer_1" data-name="Layer 1" xmlns="http://www.w3.org/2000/svg" viewBox="0 0 32 1024"><defs><style>.cls-1{fill:#474647;}.cls-2{fill:#a9aeb8;}.cls-3{fill:#12a6c7;}.cls-4{fill:#fff;}</style></defs><title>otbl-icons_spriteArtboard 1</title><path class="cls-1" d="M24,14H18V8a2,2,0,0,0-4,0v6H8a2,2,0,0,0,0,4h6v6a2,2,0,0,0,4,0V18h6a2,2,0,0,0,0-4Z"/><path class="cls-2" d="M24,46H18V40a2,2,0,0,0-4,0v6H8a2,2,0,0,0,0,4h6v6a2,2,0,0,0,4,0V50h6a2,2,0,0,0,0-4Z"/><path class="cls-3" d="M24,78H18V72a2,2,0,0,0-4,0v6H8a2,2,0,0,0,0,4h6v6a2,2,0,0,0,4,0V82h6a2,2,0,0,0,0-4Z"/><path class="cls-4" d="M24,110H18v-6a2,2,0,0,0-4,0v6H8a2,2,0,0,0,0,4h6v6a2,2,0,0,0,4,0v-6h6a2,2,0,0,0,0-4Z"/><path class="cls-1" d="M25,140.5a2,2,0,0,0-2-2,1.68,1.68,0,0,0-1.4.6L16.7,144a1,1,0,0,1-1.4,0l-4.9-4.9h0a2,2,0,0,0-1.4-.6,2,2,0,0,0-2,2,2.13,2.13,0,0,0,.7,1.5l6.9,6.9a1.93,1.93,0,0,0,2.8,0l6.9-6.9A2.13,2.13,0,0,0,25,140.5Z"/><path class="cls-2" d="M25,172.5a2,2,0,0,0-2-2,1.68,1.68,0,0,0-1.4.6L16.7,176a1,1,0,0,1-1.4,0l-4.9-4.9h0a2,2,0,0,0-1.4-.6,2,2,0,0,0-2,2,2.13,2.13,0,0,0,.7,1.5l6.9,6.9a1.93,1.93,0,0,0,2.8,0l6.9-6.9A2.13,2.13,0,0,0,25,172.5Z"/><path class="cls-3" d="M25,204.5a2,2,0,0,0-2-2,1.68,1.68,0,0,0-1.4.6L16.7,208a1,1,0,0,1-1.4,0l-4.9-4.9h0a2,2,0,0,0-1.4-.6,2,2,0,0,0-2,2,2.13,2.13,0,0,0,.7,1.5l6.9,6.9a1.93,1.93,0,0,0,2.8,0l6.9-6.9A2.13,2.13,0,0,0,25,204.5Z"/><path class="cls-4" d="M25,236.5a2,2,0,0,0-2-2,1.68,1.68,0,0,0-1.4.6L16.7,240a1,1,0,0,1-1.4,0l-4.9-4.9h0a2,2,0,0,0-1.4-.6,2,2,0,0,0-2,2,2.13,2.13,0,0,0,.7,1.5l6.9,6.9a1.93,1.93,0,0,0,2.8,0l6.9-6.9A2.13,2.13,0,0,0,25,236.5Z"/></svg>