<svg id="Layer_1" data-name="Layer 1" xmlns="http://www.w3.org/2000/svg" viewBox="0 0 32 32"><defs><style>.cls-1{fill:#fbfbff;}.cls-2{fill:#fff;}.cls-3{fill:#464646;}</style></defs><title>otbl-icons_default-avatar</title><rect class="cls-1" width="32" height="32"/><circle class="cls-2" cx="16" cy="16" r="12" transform="translate(-5.41 8.69) rotate(-26.14)"/><path class="cls-3" d="M16,6h0A10,10,0,0,1,20.4,25,10,10,0,0,1,11.6,7,9.9,9.9,0,0,1,16,6m0-2a12,12,0,1,0,10.78,6.71A12,12,0,0,0,16,4Z"/><circle class="cls-2" cx="13" cy="13" r="1"/><path class="cls-3" d="M13,12a1,1,0,1,0,1,1,1,1,0,0,0-1-1Z"/><circle class="cls-2" cx="19" cy="13" r="1"/><path class="cls-3" d="M19,12a1,1,0,1,0,1,1,1,1,0,0,0-1-1Z"/><path class="cls-3" d="M16,18a4.85,4.85,0,0,1-3.35-1.16.5.5,0,0,1,.71-.71A3.88,3.88,0,0,0,16,17a3.86,3.86,0,0,0,2.64-.87.5.5,0,0,1,.71.71A4.83,4.83,0,0,1,16,18Z"/></svg>