<svg id="Layer_1" data-name="Layer 1" xmlns="http://www.w3.org/2000/svg" viewBox="0 0 32 32"><defs><style>.cls-1{fill:#fff}</style></defs><title>otbl-icons__clone_white</title><path class="cls-1" d="M29 1H13a2 2 0 0 0-2 2v5h3V4h14v14h-4v3h5a2 2 0 0 0 2-2V3a2 2 0 0 0-2-2z"/><path class="cls-1" d="M18 14v14H4V14h14m1-3H3a2 2 0 0 0-2 2v16a2 2 0 0 0 2 2h16a2 2 0 0 0 2-2V13a2 2 0 0 0-2-2z"/><path class="cls-1" d="M15 20h-3v-3a1 1 0 0 0-2 0v3H7a1 1 0 0 0 0 2h3v3a1 1 0 0 0 2 0v-3h3a1 1 0 0 0 0-2z"/></svg>